<svg xmlns="http://www.w3.org/2000/svg" display="none">
    <symbol id="icon-building" viewBox="0 0 24 24"
        fill="none" fill-opacity="0" stroke="currentColor" stroke-width="2" stroke-linecap="round" stroke-linejoin="round"
    >
        <path d="M3 9l9-7 9 7v11a2 2 0 0 1-2 2H5a2 2 0 0 1-2-2z"/>
        <polyline points="9 22 9 12 15 12 15 22"/>
    </symbol>
    <symbol id="icon-calendar" viewBox="0 0 24 24"
        fill="none" fill-opacity="0" stroke="currentColor" stroke-width="2" stroke-linecap="round" stroke-linejoin="round"
    >
        <rect x="3" y="4" width="18" height="18" rx="2" ry="2"/>
        <line x1="16" y1="2" x2="16" y2="6"/>
        <line x1="8" y1="2" x2="8" y2="6"/>
        <line x1="3" y1="10" x2="21" y2="10"/>
    </symbol>
    <symbol id="icon-chevron-down" viewBox="0 0 24 24"
        fill="none" fill-opacity="0" stroke="currentColor" stroke-width="2" stroke-linecap="round" stroke-linejoin="round"
    >
        <polyline points="6 9 12 15 18 9"/>
    </symbol>
    <symbol id="icon-chevron-up" viewBox="0 0 24 24"
        fill="none" fill-opacity="0" stroke="currentColor" stroke-width="2" stroke-linecap="round" stroke-linejoin="round"
    >
        <polyline points="18 15 12 9 6 15"/>
    </symbol>
    <symbol id="icon-chevron-left" viewBox="0 0 24 24"
        fill="none" fill-opacity="0" stroke="currentColor" stroke-width="2" stroke-linecap="round" stroke-linejoin="round"
    >
        <polyline points="15 18 9 12 15 6"/>
    </symbol>
    <symbol id="icon-chevron-right" viewBox="0 0 24 24"
        fill="none" fill-opacity="0" stroke="currentColor" stroke-width="2" stroke-linecap="round" stroke-linejoin="round"
    >
        <polyline points="9 18 15 12 9 6"/>
    </symbol>
    <symbol id="icon-chevrons-down" viewBox="0 0 24 24"
        fill="none" fill-opacity="0" stroke="currentColor" stroke-width="2" stroke-linecap="round" stroke-linejoin="round"
    >
        <polyline points="7 13 12 18 17 13"></polyline><polyline points="7 6 12 11 17 6"></polyline>
    </symbol>
    <symbol id="icon-chevrons-up" viewBox="0 0 24 24"
        fill="none" fill-opacity="0" stroke="currentColor" stroke-width="2" stroke-linecap="round" stroke-linejoin="round"
    >
        <polyline points="17 11 12 6 7 11"></polyline><polyline points="17 18 12 13 7 18"></polyline>
    </symbol>
    <symbol id="icon-chevrons-left" viewBox="0 0 24 24"
        fill="none" fill-opacity="0" stroke="currentColor" stroke-width="2" stroke-linecap="round" stroke-linejoin="round"
    >
        <polyline points="11 17 6 12 11 7"></polyline><polyline points="18 17 13 12 18 7"></polyline>
    </symbol>
    <symbol id="icon-chevrons-right" viewBox="0 0 24 24"
        fill="none" fill-opacity="0" stroke="currentColor" stroke-width="2" stroke-linecap="round" stroke-linejoin="round"
    >
        <polyline points="13 17 18 12 13 7"></polyline><polyline points="6 17 11 12 6 7"></polyline>
    </symbol>
    <symbol id="icon-cross" viewBox="0 0 24 24"
        fill="none" fill-opacity="0" stroke="currentColor" stroke-width="2" stroke-linecap="round" stroke-linejoin="round"
    >
        <line x1="18" y1="6" x2="6" y2="18"/>
        <line x1="6" y1="6" x2="18" y2="18"/>
    </symbol>
    <symbol id="icon-edit" viewBox="0 0 24 24"
        fill="none" fill-opacity="0" stroke="currentColor" stroke-width="2" stroke-linecap="round" stroke-linejoin="round"
    >
        <path d="M17 3a2.828 2.828 0 1 1 4 4L7.5 20.5 2 22l1.5-5.5L17 3z"/>
    </symbol>
    <symbol id="icon-email" viewBox="0 0 24 24"
        fill="none" fill-opacity="0" stroke="currentColor" stroke-width="2" stroke-linecap="round" stroke-linejoin="round"
    >
        <path d="M4 4h16c1.1 0 2 .9 2 2v12c0 1.1-.9 2-2 2H4c-1.1 0-2-.9-2-2V6c0-1.1.9-2 2-2z"/>
        <polyline points="22,6 12,13 2,6"/>
    </symbol>
    <symbol id="icon-facebook" viewBox="0 0 24 24"
        fill="none" fill-opacity="0" stroke="currentColor" stroke-width="2" stroke-linecap="round" stroke-linejoin="round"
    >
        <path d="M18 2h-3a5 5 0 0 0-5 5v3H7v4h3v8h4v-8h3l1-4h-4V7a1 1 0 0 1 1-1h3z"/>
    </symbol>
    <symbol id="icon-fax" viewBox="0 0 24 24"
        fill="none" fill-opacity="0" stroke="currentColor" stroke-width="2" stroke-linecap="round" stroke-linejoin="round"
    >
        <path class="st0" d="M6,18H4c-1.1,0-2-0.7-2-1.6v-4c0-0.9,0.9-1.6,2-1.6h16c1.1,0,2,0.7,2,1.6v4c0,0.9-0.9,1.6-2,1.6h-2"/>
        <rect x="6" y="14" class="st0" width="12" height="8"/>
        <path class="st0" d="M6,7.4L4.8,6.2C4.4,5.7,4.4,5,4.8,4.6c0,0,0.1,0,0.1-0.1c1.4-1.1,3-1.9,4.7-2.2c1.6-0.4,3.2-0.4,4.8,0 c1.7,0.4,3.3,1.1,4.7,2.2c0.5,0.4,0.5,1.1,0.1,1.6c0,0,0,0.1-0.1,0.1L18,7.4c-0.4,0.4-1,0.5-1.5,0.1c-0.4-0.3-0.9-0.6-1.4-0.8 c-0.4-0.2-0.7-0.6-0.7-1v-1c-1.6-0.4-3.2-0.4-4.8,0v1c0,0.4-0.3,0.8-0.7,1C8.4,6.9,8,7.2,7.5,7.5C7.1,7.8,6.4,7.8,6,7.4z"/>
    </symbol>
    <symbol id="icon-file" viewBox="0 0 24 24"
        fill="none" fill-opacity="0" stroke="currentColor" stroke-width="2" stroke-linecap="round" stroke-linejoin="round"
    >
        <path d="M13 2H6a2 2 0 0 0-2 2v16a2 2 0 0 0 2 2h12a2 2 0 0 0 2-2V9z"/>
        <polyline points="13 2 13 9 20 9"/>
    </symbol>
    <symbol id="icon-info" viewBox="0 0 24 24"
        fill="none" fill-opacity="0" stroke="currentColor" stroke-width="2" stroke-linecap="round" stroke-linejoin="round"
    >
        <circle cx="12" cy="12" r="10"/>
        <line x1="12" y1="16" x2="12" y2="12"/>
        <line x1="12" y1="8" x2="12.01" y2="8"/>
    </symbol>
    <symbol id="icon-linkedin" viewBox="0 0 24 24"
        fill="none" fill-opacity="0" stroke="currentColor" stroke-width="2" stroke-linecap="round" stroke-linejoin="round"
    >
        <path d="M16 8a6 6 0 0 1 6 6v7h-4v-7a2 2 0 0 0-2-2 2 2 0 0 0-2 2v7h-4v-7a6 6 0 0 1 6-6z"/>
        <rect x="2" y="9" width="4" height="12"/>
        <circle cx="4" cy="4" r="2"/>
    </symbol>
        <symbol id="icon-map-pin" viewBox="0 0 24 24"
        fill="none" fill-opacity="0" stroke="currentColor" stroke-width="2" stroke-linecap="round" stroke-linejoin="round"
    >
        <path d="M21 10c0 7-9 13-9 13s-9-6-9-13a9 9 0 0 1 18 0z"></path><circle cx="12" cy="10" r="3"></circle>
    </symbol>
    <symbol id="icon-menu" viewBox="0 0 24 24"
        fill="none" fill-opacity="0" stroke="currentColor" stroke-width="2" stroke-linecap="round" stroke-linejoin="round"
    >
        <line x1="3" y1="12" x2="21" y2="12"/>
        <line x1="3" y1="6" x2="21" y2="6"/>
        <line x1="3" y1="18" x2="21" y2="18"/>
    </symbol>
    <symbol id="icon-person" viewBox="0 0 24 24"
        fill="none" fill-opacity="0" stroke="currentColor" stroke-width="2" stroke-linecap="round" stroke-linejoin="round"
    >
        <path d="M20 21v-2a4 4 0 0 0-4-4H8a4 4 0 0 0-4 4v2"/>
        <circle cx="12" cy="7" r="4"/>
    </symbol>
    <symbol id="icon-phone" viewBox="0 0 24 24"
        fill="none" fill-opacity="0" stroke="currentColor" stroke-width="2" stroke-linecap="round" stroke-linejoin="round"
    >
        <path d="M22 16.92v3a2 2 0 0 1-2.18 2 19.79 19.79 0 0 1-8.63-3.07 19.5 19.5 0 0 1-6-6 19.79 19.79 0 0 1-3.07-8.67A2 2 0 0 1 4.11 2h3a2 2 0 0 1 2 1.72 12.84 12.84 0 0 0 .7 2.81 2 2 0 0 1-.45 2.11L8.09 9.91a16 16 0 0 0 6 6l1.27-1.27a2 2 0 0 1 2.11-.45 12.84 12.84 0 0 0 2.81.7A2 2 0 0 1 22 16.92z"/>
    </symbol>
    <symbol id="icon-rss" viewBox="0 0 24 24"
        fill="none" fill-opacity="0" stroke="currentColor" stroke-width="2" stroke-linecap="round" stroke-linejoin="round"
    >
        <path class="st0" d="M5.6,9.1c4,0,7.2,3.2,7.2,7.2"/><path class="st0" d="M5.6,3.5c7,0,12.8,5.7,12.8,12.8"/><circle class="st0" cx="6.4" cy="15.5" r="0.8"/>
    </symbol>
    <symbol id="icon-search" viewBox="0 0 24 24"
        fill="none" fill-opacity="0" stroke="currentColor" stroke-width="2" stroke-linecap="round" stroke-linejoin="round"
    >
        <circle cx="10.5" cy="10.5" r="7.5"/>
        <line x1="21" y1="21" x2="15.8" y2="15.8"/>
    </symbol>
    <symbol id="icon-x" viewBox="0 0 24 24"
            fill="none" fill-opacity="1" stroke="none" stroke-width="0" stroke-linecap="round" stroke-linejoin="round"
        >
        <path fill="#010202" d="M14.3,10.2L23,0h-2.1l-7.6,8.8L7.3,0h-7l9.2,13.4L0.3,24h2.1l8-9.3l6.4,9.3h7L14.3,10.2z M11.5,13.5 l-0.9-1.3L3.2,1.6h3.2l6,8.5l0.9,1.3l7.8,11.1h-3.2C17.8,22.5,11.5,13.5,11.5,13.5z"/>
    </symbol>
</svg>