<?xml version="1.0" standalone="no"?>
<!DOCTYPE svg PUBLIC "-//W3C//DTD SVG 20010904//EN"
 "http://www.w3.org/TR/2001/REC-SVG-20010904/DTD/svg10.dtd">
<svg version="1.0" xmlns="http://www.w3.org/2000/svg"
 width="568.000000pt" height="568.000000pt" viewBox="0 0 568.000000 568.000000"
 preserveAspectRatio="xMidYMid meet">
<metadata>
Created by potrace 1.14, written by Peter Selinger 2001-2017
</metadata>
<g transform="translate(0.000000,568.000000) scale(0.100000,-0.100000)"
fill="#000000" stroke="none">
<path d="M1448 5675 c-1 -1 -43 -6 -93 -9 -49 -4 -99 -9 -110 -11 -11 -2 -42
-7 -68 -10 -26 -3 -71 -10 -100 -16 -29 -5 -65 -12 -82 -15 -38 -7 -41 -8 -95
-23 -25 -7 -46 -13 -48 -12 -1 1 -16 -6 -32 -14 -16 -8 -31 -14 -32 -13 -2 2
-30 -10 -63 -26 -51 -25 -123 -85 -126 -105 0 -3 -2 -15 -4 -25 -5 -24 20 -74
49 -98 50 -42 205 -105 316 -129 100 -21 135 -28 183 -34 20 -3 54 -8 75 -11
71 -11 88 -12 176 -19 50 -3 93 -8 96 -10 7 -4 4 -698 -5 -915 -7 -196 -13
-316 -19 -405 -3 -38 -8 -115 -12 -170 -3 -55 -7 -120 -9 -145 -17 -225 -19
-248 -29 -355 -4 -33 -8 -78 -11 -100 -2 -22 -7 -74 -10 -115 -4 -41 -9 -86
-11 -100 -2 -14 -7 -47 -10 -75 -11 -107 -15 -143 -24 -210 -6 -38 -12 -88
-15 -110 -3 -22 -8 -51 -10 -65 -2 -14 -7 -50 -11 -80 -3 -30 -7 -57 -9 -60
-2 -3 -6 -29 -10 -59 -4 -30 -9 -63 -11 -75 -2 -12 -7 -37 -10 -56 -2 -19 -7
-46 -10 -60 -10 -55 -13 -69 -18 -101 -3 -19 -8 -45 -11 -59 -2 -14 -12 -59
-20 -100 -8 -41 -17 -84 -19 -95 -18 -102 -19 -107 -45 -215 -11 -47 -22 -97
-24 -110 -9 -47 -58 -235 -67 -260 -6 -14 -12 -34 -14 -45 -6 -30 -56 -187
-66 -210 -5 -11 -19 -49 -31 -84 -12 -35 -28 -75 -35 -90 -8 -14 -14 -29 -14
-33 0 -23 -158 -339 -205 -411 -9 -14 -18 -48 -22 -76 l-6 -51 1024 2 c1016 3
1024 3 1024 23 0 41 -18 92 -58 160 -23 39 -42 76 -43 83 -2 8 -9 21 -17 30
-14 17 -98 202 -136 300 -38 97 -100 282 -94 282 3 0 1 6 -5 13 -15 17 -124
437 -145 557 -3 14 -15 72 -27 130 -12 58 -23 114 -25 125 -1 11 -5 29 -8 40
-3 11 -8 36 -11 55 -3 19 -17 105 -31 190 -22 133 -30 184 -40 235 -1 6 -5 35
-9 65 -3 30 -8 66 -10 80 -4 26 -15 102 -21 155 -2 17 -7 53 -11 80 -4 28 -7
53 -6 56 0 3 -3 35 -8 70 -10 77 -18 142 -25 229 -3 36 -8 81 -10 100 -2 19
-7 63 -10 98 -3 34 -8 90 -11 125 -3 34 -8 91 -10 127 -4 75 -12 187 -19 280
-3 36 -7 115 -10 175 -3 61 -8 142 -10 180 -10 135 -15 1044 -6 1049 5 3 40 8
77 11 98 7 165 13 199 19 17 2 64 10 105 16 121 19 293 67 367 102 236 113
178 249 -147 344 -66 19 -171 42 -220 49 -19 3 -46 7 -60 10 -13 2 -56 7 -95
11 -38 3 -79 8 -90 11 -21 5 -581 13 -587 8z"/>
<path d="M3180 3759 c0 -5 -7 -6 -15 -3 -25 10 -140 -32 -210 -76 -61 -38
-123 -99 -169 -165 -95 -135 -136 -272 -148 -490 -2 -32 13 -162 23 -198 51
-191 220 -366 527 -547 109 -64 274 -178 337 -233 90 -79 208 -201 243 -252
15 -22 30 -42 34 -45 4 -4 18 -27 31 -53 26 -49 31 -50 51 -2 21 48 113 162
207 256 94 94 269 239 288 239 6 0 11 5 11 10 0 6 8 14 18 18 37 15 323 201
383 249 12 10 53 49 90 86 129 129 189 267 194 441 3 146 -22 279 -75 401 -74
170 -235 309 -405 347 -57 13 -176 15 -240 5 -127 -22 -298 -135 -396 -263
-22 -28 -83 -134 -93 -159 -6 -17 -12 -10 -39 40 -109 203 -256 332 -434 381
-63 17 -213 26 -213 13z"/>
</g>
</svg>
