<?xml version="1.0" standalone="no"?>
<!DOCTYPE svg PUBLIC "-//W3C//DTD SVG 20010904//EN"
 "http://www.w3.org/TR/2001/REC-SVG-20010904/DTD/svg10.dtd">
<svg version="1.0" xmlns="http://www.w3.org/2000/svg"
 width="700.000000pt" height="700.000000pt" viewBox="0 0 700.000000 700.000000"
 preserveAspectRatio="xMidYMid meet">
<metadata>
Created by potrace 1.11, written by Peter Selinger 2001-2013
</metadata>
<g transform="translate(0.000000,700.000000) scale(0.100000,-0.100000)"
fill="#000000" stroke="none">
<path d="M2919 6500 c-104 -18 -202 -82 -258 -166 -44 -67 -66 -131 -127 -374
-60 -235 -97 -328 -163 -402 -47 -53 -51 -75 -15 -88 40 -16 194 -12 255 6
140 41 278 148 369 284 24 36 44 67 46 68 1 2 11 -1 20 -6 14 -8 30 -4 66 14
26 13 50 24 53 24 3 0 -10 -21 -30 -47 -62 -81 -124 -219 -141 -313 -9 -47
-24 -111 -34 -142 l-19 -58 22 -5 c33 -9 52 -92 30 -135 -8 -17 -13 -32 -12
-34 2 -1 21 -13 41 -25 47 -28 82 -76 75 -101 -4 -14 4 -26 23 -40 15 -11 31
-20 35 -20 3 0 37 -26 73 -57 85 -71 196 -145 290 -190 55 -26 72 -39 68 -51
-2 -10 -10 -51 -16 -92 -18 -121 -31 -170 -45 -170 -8 0 -71 21 -142 46 -70
25 -153 51 -184 58 l-56 14 -48 -119 c-27 -66 -51 -119 -55 -119 -13 0 -264
260 -329 342 -94 117 -189 264 -263 404 l-61 116 -1 117 c-1 114 -2 119 -38
192 -64 130 -179 217 -250 190 -48 -18 -63 -55 -62 -152 l0 -87 -81 -4 c-140
-7 -210 -63 -210 -167 1 -133 142 -261 289 -261 78 0 124 15 183 59 l48 37 61
-116 c123 -235 285 -451 512 -682 l144 -147 -43 -110 c-27 -69 -48 -111 -57
-111 -10 0 -13 -7 -9 -21 7 -26 -36 -146 -63 -174 -28 -30 -60 -112 -60 -153
0 -50 -10 -82 -25 -82 -7 0 -15 -19 -18 -45 -4 -25 -42 -152 -85 -283 -44
-130 -89 -272 -102 -314 l-23 -77 -80 117 c-217 318 -443 549 -628 643 -75 38
-182 62 -237 55 -123 -17 -201 -107 -246 -287 l-23 -89 -41 35 c-92 80 -187
93 -253 37 -42 -35 -59 -79 -59 -151 0 -120 67 -263 164 -348 43 -38 117 -73
155 -73 37 0 94 23 126 51 57 51 69 104 71 334 2 205 7 240 44 300 27 44 49
50 113 29 304 -101 564 -355 780 -762 l54 -104 -27 -108 c-30 -118 -30 -120
25 -148 35 -18 230 -60 610 -132 203 -39 372 -74 376 -78 4 -4 43 -104 87
-223 105 -279 213 -533 316 -739 204 -410 363 -585 545 -598 131 -9 212 50
292 214 l51 103 51 -56 c57 -62 97 -83 155 -83 53 0 102 34 130 92 72 144 -22
433 -166 511 -111 60 -225 15 -271 -108 -11 -29 -29 -115 -41 -191 -32 -215
-57 -279 -123 -328 l-28 -21 -56 29 c-69 37 -196 155 -278 260 -184 237 -380
653 -498 1061 l-15 51 94 -4 c110 -5 139 1 158 31 36 54 140 519 216 964 41
238 140 776 144 780 1 1 64 24 141 51 331 117 575 239 798 399 48 35 89 63 91
63 2 0 16 -24 30 -54 49 -101 142 -159 256 -159 152 -1 280 92 280 203 0 68
-53 133 -157 192 -49 27 -52 32 -39 47 26 29 66 125 66 159 0 24 -9 42 -31 64
-29 29 -33 30 -97 26 -127 -9 -263 -103 -322 -221 -16 -33 -30 -68 -30 -78 0
-42 -283 -236 -495 -339 -130 -64 -360 -154 -426 -167 -33 -6 -33 -6 -18 87 6
36 7 80 4 98 -8 45 -45 59 -199 78 -152 18 -260 41 -308 65 -30 15 -38 25 -38
47 1 30 45 250 52 257 3 3 31 0 64 -6 75 -14 249 -6 334 17 153 40 323 132
438 239 32 29 62 51 67 49 9 -3 97 138 143 231 32 65 56 156 53 207 -2 42 0
46 18 41 10 -3 29 0 41 7 12 6 24 9 27 6 3 -3 9 -47 14 -98 18 -181 81 -325
189 -434 59 -59 156 -114 200 -114 44 0 50 16 34 95 -19 100 -5 194 66 446 33
115 64 238 69 272 11 80 -1 166 -33 231 -33 68 -129 159 -203 194 -50 23 -71
27 -154 27 -90 0 -99 -2 -170 -37 -47 -23 -100 -61 -142 -100 l-66 -63 -43 55
c-110 140 -316 250 -560 300 -48 10 -95 26 -104 35 -12 12 -25 15 -43 10 -14
-4 -96 -10 -181 -14 -188 -10 -258 -26 -342 -78 -21 -13 -41 -23 -46 -23 -5 0
-16 26 -26 58 -47 148 -133 260 -234 305 -64 28 -162 40 -233 27z m1034 -492
c-21 -24 -26 -17 -13 18 9 22 13 25 20 14 6 -10 4 -21 -7 -32z m197 -2 c0 -2
-7 -9 -15 -16 -12 -10 -15 -10 -15 4 0 9 7 16 15 16 8 0 15 -2 15 -4z m295
-121 c17 -13 25 -24 18 -25 -7 0 -25 11 -40 25 -36 32 -17 32 22 0z m-1043
-40 c6 -13 17 -25 24 -27 14 -3 -87 -90 -118 -101 -9 -3 -24 0 -33 7 -16 11
-14 14 17 33 24 14 41 36 54 67 21 51 39 58 56 21z m1179 -66 c43 -46 47 -75
15 -107 -23 -23 -29 -25 -46 -14 -14 8 -32 9 -59 3 -49 -11 -60 -3 -29 21 18
13 23 27 23 60 0 35 4 44 25 55 35 18 38 17 71 -18z m-1312 -88 c20 -13 5 -43
-36 -69 l-36 -23 7 42 c4 23 9 46 12 51 7 10 35 10 53 -1z m1061 -136 c0 -6
-23 -33 -51 -60 -28 -28 -78 -84 -111 -125 -53 -66 -239 -250 -253 -250 -18 0
72 130 190 275 54 66 116 144 138 174 l39 53 24 -28 c13 -16 23 -34 24 -39z
m320 16 c0 -35 -31 -110 -44 -105 -7 3 -18 -7 -24 -21 -6 -14 -18 -25 -27 -25
-22 0 -20 6 25 73 22 33 43 70 46 83 7 26 24 23 24 -5z m-1490 -95 c0 -8 -7
-19 -15 -26 -13 -10 -15 -9 -15 12 0 14 3 28 6 31 9 9 24 -2 24 -17z m1320
-128 c-35 -96 -58 -138 -194 -343 -166 -252 -153 -236 -210 -242 l-48 -6 30
60 c17 33 64 102 104 154 89 114 105 138 124 191 8 24 32 56 57 78 24 21 67
70 97 109 30 39 56 69 58 66 3 -2 -5 -33 -18 -67z m-594 -76 c-87 -127 -113
-159 -122 -150 -4 5 1 17 12 29 12 14 19 36 19 62 0 38 4 44 54 82 29 22 60
53 68 69 11 20 18 25 26 17 7 -7 -9 -39 -57 -109z m-726 84 c0 -2 -7 -9 -15
-16 -12 -10 -15 -10 -15 4 0 9 7 16 15 16 8 0 15 -2 15 -4z m560 -50 c-12 -20
-24 -36 -26 -36 -3 0 -16 12 -29 28 l-23 27 41 17 c54 21 66 9 37 -36z m-411
-3 c-26 -27 -61 -70 -79 -98 -18 -27 -35 -52 -37 -55 -7 -8 -23 24 -23 45 0
27 86 124 124 141 57 24 61 15 15 -33z m-1219 -85 c19 -7 44 -19 55 -25 20
-13 20 -13 -5 -33 -37 -29 -107 -50 -167 -50 -51 0 -53 1 -73 40 -23 45 -26
76 -7 84 20 10 160 -2 197 -16z m1491 -45 c8 -23 5 -33 -21 -69 -35 -50 -90
-162 -90 -185 0 -18 28 -29 78 -29 38 0 53 -24 30 -47 -14 -13 -21 -12 -69 13
-71 35 -139 82 -139 96 0 5 35 46 77 89 67 69 77 84 76 114 -1 27 3 35 21 38
11 2 22 5 24 6 1 0 7 -11 13 -26z m-221 -48 c0 -18 -66 -85 -85 -85 -25 0 -28
21 -8 48 32 44 93 68 93 37z m286 -164 c-96 -96 -103 -61 -8 41 36 39 48 46
59 36 12 -10 3 -23 -51 -77z m274 33 c0 -3 -14 -33 -31 -65 -25 -47 -37 -59
-56 -59 -20 0 -29 -10 -46 -50 -24 -53 -30 -56 -88 -38 -43 12 -47 19 -23 39
9 7 34 40 56 74 67 99 74 105 135 105 29 0 53 -3 53 -6z m1559 -357 c-2 -1
-13 -9 -24 -17 -19 -14 -19 -14 -6 3 7 9 18 17 24 17 6 0 8 -1 6 -3z m79 -282
c81 -36 91 -49 64 -78 -11 -12 -34 -30 -50 -39 -29 -17 -31 -17 -83 10 -49 25
-129 109 -129 136 0 19 136 -1 198 -29z m-2328 -311 c154 -25 190 -35 218 -59
l27 -24 -48 -1 c-47 0 -319 29 -325 35 -2 2 0 19 4 40 5 28 10 35 23 30 9 -4
54 -13 101 -21z m820 -170 c0 -14 -3 -14 -15 -4 -8 7 -15 14 -15 16 0 2 7 4
15 4 8 0 15 -7 15 -16z m-776 -125 c197 -18 242 -58 66 -59 -87 0 -320 48
-320 67 0 15 23 14 254 -8z m313 -202 c-5 -12 -13 -13 -44 -6 -57 13 -99 11
-113 -6 -14 -17 -42 -6 -76 31 -29 30 -13 36 74 28 52 -4 72 -2 87 10 19 14
22 13 49 -14 17 -16 26 -34 23 -43z m-217 -171 c0 -17 -8 -18 -102 -14 -72 3
-112 9 -133 21 -29 16 -26 17 102 14 122 -2 133 -4 133 -21z m290 -32 c41 -8
92 -13 113 -10 46 8 48 -1 2 -20 -43 -18 -131 -18 -215 1 -36 8 -82 14 -102
15 -39 0 -52 15 -20 23 39 10 152 6 222 -9z m-2525 -243 c17 -10 58 -46 93
-81 55 -55 62 -66 62 -102 0 -77 -32 -97 -94 -59 -69 43 -139 183 -121 241 8
25 22 25 60 1z m1958 -56 c108 -32 214 -45 292 -38 33 3 128 -2 211 -11 83 -9
186 -16 228 -16 69 0 77 -2 72 -17 -2 -10 -7 -32 -11 -50 l-6 -32 -37 22 c-33
20 -57 23 -227 28 -188 7 -265 20 -302 51 -10 8 -36 12 -72 10 -31 -2 -105 6
-164 17 -60 12 -119 18 -133 15 -19 -5 -24 -2 -24 13 0 11 3 23 7 26 13 14 81
6 166 -18z m-298 -21 c20 -15 20 -15 1 -30 -21 -15 -46 -19 -46 -6 0 17 13 52
19 52 3 0 15 -8 26 -16z m62 -174 c112 -23 137 -34 105 -45 -17 -5 -226 17
-263 28 -4 1 -3 13 2 26 7 19 14 22 35 17 14 -4 68 -16 121 -26z m877 -284
c37 -18 54 -22 63 -14 17 14 17 12 -9 -117 -23 -109 -23 -110 -26 -55 -5 97
-50 124 -264 160 -65 11 -130 26 -145 33 -24 11 -17 13 72 18 163 10 252 3
309 -25z m-1089 -13 c29 -23 43 -27 107 -28 54 -1 84 -6 115 -23 39 -20 60
-39 52 -47 -4 -3 -331 55 -337 59 -3 4 19 66 25 66 2 0 19 -12 38 -27z m1105
-287 c0 -7 -3 -35 -6 -61 l-7 -47 -66 6 c-114 12 -121 14 -121 46 0 16 -4 32
-10 35 -5 3 -10 13 -10 21 0 11 21 14 110 14 86 0 110 -3 110 -14z m1108
-1182 c46 -51 72 -117 72 -180 0 -82 -18 -93 -73 -44 -44 39 -117 150 -117
179 0 12 7 37 14 56 22 51 53 47 104 -11z"/>
</g>
</svg>
