<?xml version="1.0" standalone="no"?>
<!DOCTYPE svg PUBLIC "-//W3C//DTD SVG 20010904//EN"
 "http://www.w3.org/TR/2001/REC-SVG-20010904/DTD/svg10.dtd">
<svg version="1.0" xmlns="http://www.w3.org/2000/svg"
 width="287.000000pt" height="287.000000pt" viewBox="0 0 287.000000 287.000000"
 preserveAspectRatio="xMidYMid meet">
<metadata>
Created by potrace 1.11, written by Peter Selinger 2001-2013
</metadata>
<g transform="translate(0.000000,287.000000) scale(0.100000,-0.100000)"
fill="#000000" stroke="none">
<path d="M967 2544 c-83 -20 -153 -51 -223 -100 -222 -155 -316 -448 -227
-704 37 -107 86 -183 169 -259 308 -282 803 -181 978 201 110 238 60 508 -126
696 -84 84 -189 142 -304 167 -60 14 -210 13 -267 -1z"/>
<path d="M2290 2344 c-81 -31 -142 -83 -159 -138 -32 -96 -13 -185 55 -252 97
-97 259 -85 340 25 38 54 52 99 47 159 -9 113 -95 198 -209 207 -33 2 -66 2
-74 -1z"/>
<path d="M2316 1807 c-69 -17 -113 -74 -185 -237 -36 -80 -71 -152 -78 -161
-7 -8 -13 -19 -13 -23 0 -16 -83 -118 -125 -153 -98 -82 -189 -116 -339 -126
-39 -3 -61 -36 -42 -63 13 -17 27 -19 118 -19 116 1 161 7 256 37 216 66 442
228 560 399 72 106 87 205 40 276 -42 63 -114 90 -192 70z"/>
<path d="M2523 1343 c-7 -3 -50 -41 -95 -86 -101 -100 -193 -165 -318 -228
-208 -103 -405 -126 -625 -72 -100 24 -162 50 -345 145 -219 114 -199 104
-240 121 -172 74 -354 41 -484 -86 -132 -130 -163 -337 -76 -508 47 -90 177
-202 305 -260 187 -84 471 -103 715 -48 25 6 54 13 66 15 149 29 391 131 530
224 231 155 449 397 603 671 26 46 30 61 22 81 -9 25 -35 38 -58 31z"/>
</g>
</svg>
