<?xml version="1.0" standalone="no"?>
<!DOCTYPE svg PUBLIC "-//W3C//DTD SVG 20010904//EN"
 "http://www.w3.org/TR/2001/REC-SVG-20010904/DTD/svg10.dtd">
<svg version="1.0" xmlns="http://www.w3.org/2000/svg"
 width="568.000000pt" height="568.000000pt" viewBox="0 0 568.000000 568.000000"
 preserveAspectRatio="xMidYMid meet">
<metadata>
Created by potrace 1.14, written by Peter Selinger 2001-2017
</metadata>
<g transform="translate(0.000000,568.000000) scale(0.100000,-0.100000)"
fill="#000000" stroke="none">
<path d="M2656 5323 c-1 -1 -24 -5 -52 -8 -27 -3 -67 -8 -89 -11 -38 -4 -121
-18 -175 -28 -14 -3 -54 -12 -90 -21 -36 -9 -69 -18 -75 -19 -160 -38 -489
-181 -622 -270 -29 -19 -53 -32 -53 -28 0 4 -4 2 -8 -3 -4 -6 -27 -23 -52 -40
-25 -16 -49 -34 -55 -39 -5 -6 -26 -22 -47 -36 -95 -66 -330 -290 -423 -404
-160 -195 -303 -439 -393 -669 -37 -95 -85 -244 -97 -300 -2 -10 -6 -26 -9
-35 -3 -9 -8 -35 -12 -57 -3 -22 -8 -43 -10 -47 -3 -4 -7 -26 -10 -50 -2 -24
-7 -52 -9 -63 -27 -128 -27 -580 -1 -710 2 -11 7 -40 11 -65 3 -25 9 -57 11
-72 2 -15 8 -38 14 -52 5 -15 8 -26 5 -26 -2 0 1 -15 6 -32 6 -18 12 -42 14
-53 9 -41 58 -190 66 -201 5 -6 10 -19 12 -30 8 -43 89 -218 149 -322 27 -46
48 -87 48 -92 0 -5 3 -10 7 -12 5 -1 30 -36 57 -77 27 -41 52 -79 57 -85 5 -6
22 -27 37 -47 68 -89 114 -141 218 -244 128 -127 125 -124 264 -228 58 -43
110 -81 115 -85 40 -31 191 -115 300 -167 213 -103 545 -204 730 -220 28 -3
61 -8 75 -12 14 -4 638 -9 1388 -10 l1362 -4 1 26 c1 59 0 236 -2 243 -1 4 0
12 1 17 2 12 2 285 -1 300 -1 6 0 15 1 20 2 12 2 285 -1 300 -1 6 0 15 1 20 2
12 2 285 -1 300 -1 6 0 15 1 20 2 12 2 285 -1 300 -1 6 0 15 1 20 2 12 2 285
-1 300 -1 6 0 15 1 20 5 22 2 296 -3 301 -3 3 -3 12 0 20 7 18 10 284 3 284
-3 0 -5 44 -5 98 -1 87 -7 165 -21 272 -17 132 -86 391 -143 532 -57 142 -92
213 -195 393 -20 36 -69 110 -75 115 -3 3 -22 28 -40 55 -101 145 -309 361
-467 485 -52 41 -166 122 -224 159 -59 39 -360 193 -385 197 -5 1 -64 21 -130
44 -142 49 -171 58 -208 64 -15 3 -35 7 -45 10 -20 6 -65 15 -107 21 -16 3
-41 7 -55 10 -26 6 -47 9 -170 20 -69 7 -389 13 -394 8z"/>
</g>
</svg>
