<?xml version="1.0" standalone="no"?>
<!DOCTYPE svg PUBLIC "-//W3C//DTD SVG 20010904//EN"
 "http://www.w3.org/TR/2001/REC-SVG-20010904/DTD/svg10.dtd">
<svg version="1.0" xmlns="http://www.w3.org/2000/svg"
 width="400.000000pt" height="400.000000pt" viewBox="0 0 400.000000 400.000000"
 preserveAspectRatio="xMidYMid meet">
<metadata>
Created by potrace 1.11, written by Peter Selinger 2001-2013
</metadata>
<g transform="translate(0.000000,400.000000) scale(0.100000,-0.100000)"
fill="#000000" stroke="none">
<path d="M2647 2784 c-1 -1 -27 -5 -58 -8 -31 -4 -67 -9 -80 -12 -13 -2 -40
-7 -59 -10 -63 -10 -212 -64 -300 -108 -136 -68 -259 -153 -189 -131 180 58
353 83 549 79 515 -9 983 -203 1330 -553 58 -58 118 -122 133 -141 25 -31 27
-32 22 -10 -8 32 -15 50 -56 135 -140 296 -370 516 -683 655 -50 22 -153 57
-190 64 -12 2 -41 9 -66 14 -70 16 -157 25 -258 26 -51 1 -94 1 -95 0z"/>
<path d="M2097 2404 c-1 -1 -42 -5 -92 -9 -49 -3 -108 -10 -130 -15 -22 -5
-62 -11 -89 -15 -27 -3 -53 -8 -56 -10 -4 -2 -20 -6 -36 -9 -51 -9 -231 -65
-308 -96 -671 -266 -1159 -822 -1326 -1507 -39 -160 -52 -282 -55 -515 l-3
-228 1311 0 1312 0 -78 40 c-153 77 -289 193 -395 335 -104 140 -195 363 -219
535 -2 19 -8 58 -12 87 -9 57 -7 258 3 343 16 134 73 314 138 437 71 134 198
286 303 364 17 12 35 26 40 31 19 18 -48 -13 -130 -58 -226 -126 -425 -328
-540 -549 -38 -73 -40 -72 -25 22 49 300 256 583 527 717 73 37 181 76 209 76
30 0 8 11 -32 16 -39 5 -312 12 -317 8z"/>
</g>
</svg>
