<?xml version="1.0" standalone="no"?>
<!DOCTYPE svg PUBLIC "-//W3C//DTD SVG 20010904//EN"
 "http://www.w3.org/TR/2001/REC-SVG-20010904/DTD/svg10.dtd">
<svg version="1.0" xmlns="http://www.w3.org/2000/svg"
 width="1202.000000pt" height="1202.000000pt" viewBox="0 0 1202.000000 1202.000000"
 preserveAspectRatio="xMidYMid meet">
<metadata>
Created by potrace 1.11, written by Peter Selinger 2001-2013
</metadata>
<g transform="translate(0.000000,1202.000000) scale(0.100000,-0.100000)"
fill="#000000" stroke="none">
<path d="M5730 11904 c-556 -50 -994 -172 -1485 -415 -448 -221 -831 -497
-1201 -864 -99 -99 -200 -202 -223 -228 l-43 -49 -142 60 c-701 299 -1346 473
-1945 523 -139 11 -518 7 -638 -7 l-53 -7 0 -811 0 -811 387 0 c404 0 473 -5
823 -56 434 -63 952 -184 1435 -334 98 -30 194 -55 214 -55 79 0 132 26 246
120 598 494 1455 848 2310 955 390 48 822 48 1215 -1 696 -87 1376 -333 1940
-701 139 -91 273 -191 358 -267 81 -72 132 -98 207 -103 53 -4 80 2 240 55
813 271 1708 421 2380 398 105 -4 205 -9 223 -12 l32 -6 0 820 0 820 -67 9
c-103 12 -593 9 -723 -6 -614 -67 -1219 -235 -1824 -505 l-163 -73 -59 69
c-92 109 -397 404 -524 507 -580 474 -1187 771 -1854 907 -250 51 -400 65
-721 69 -165 1 -320 1 -345 -1z"/>
<path d="M5780 8544 c-641 -77 -1141 -319 -1570 -760 -402 -413 -643 -933
-701 -1508 -15 -151 -6 -484 16 -626 9 -58 34 -172 55 -255 199 -779 778
-1428 1533 -1719 292 -113 584 -166 907 -166 669 0 1276 246 1754 710 436 424
688 939 756 1545 13 116 13 414 0 530 -56 497 -244 949 -553 1330 -79 98 -277
294 -372 370 -335 269 -729 446 -1155 522 -125 22 -180 26 -390 28 -135 2
-261 1 -280 -1z m590 -473 c433 -76 815 -274 1121 -580 315 -315 506 -688 586
-1146 26 -152 24 -510 -5 -665 -69 -378 -222 -706 -461 -991 -542 -648 -1448
-902 -2246 -629 -626 214 -1104 696 -1309 1320 -140 427 -140 862 0 1290 221
676 768 1188 1459 1365 72 18 171 38 220 44 50 6 104 13 120 15 80 11 406 -3
515 -23z"/>
<path d="M2805 3254 c-11 -3 -83 -25 -160 -49 -903 -282 -1813 -431 -2411
-395 -97 5 -189 10 -205 10 l-29 0 0 -859 0 -859 23 -5 c12 -3 92 -11 177 -18
405 -30 924 34 1466 182 294 80 777 252 1044 372 l56 25 94 -105 c101 -111
287 -288 435 -414 573 -484 1256 -823 1934 -958 1240 -247 2455 82 3485 944
124 103 383 354 478 463 l55 63 79 -36 c635 -291 1315 -478 1944 -535 142 -13
486 -16 638 -5 l102 8 0 863 0 863 -262 -6 c-282 -6 -495 4 -783 38 -510 59
-1085 189 -1575 357 -145 50 -174 56 -242 56 -96 -1 -152 -27 -258 -120 -326
-286 -805 -554 -1295 -723 -522 -181 -1001 -261 -1560 -262 -559 -1 -1023 73
-1540 246 -511 170 -1015 442 -1365 736 -47 40 -108 82 -136 95 -50 24 -149
38 -189 28z"/>
</g>
</svg>
