<?xml version="1.0" standalone="no"?>
<!DOCTYPE svg PUBLIC "-//W3C//DTD SVG 20010904//EN"
 "http://www.w3.org/TR/2001/REC-SVG-20010904/DTD/svg10.dtd">
<svg version="1.0" xmlns="http://www.w3.org/2000/svg"
 width="700.000000pt" height="700.000000pt" viewBox="0 0 700.000000 700.000000"
 preserveAspectRatio="xMidYMid meet">
<metadata>
Created by potrace 1.14, written by Peter Selinger 2001-2017
</metadata>
<g transform="translate(0.000000,700.000000) scale(0.100000,-0.100000)"
fill="#000000" stroke="none">
<path d="M3334 6639 c-640 -29 -1277 -270 -1794 -679 -135 -106 -394 -365
-499 -499 -414 -523 -653 -1157 -679 -1802 -16 -382 25 -729 125 -1059 114
-378 311 -755 553 -1060 107 -135 365 -393 500 -500 292 -232 643 -419 999
-534 616 -198 1306 -198 1922 0 356 115 707 302 999 534 135 107 393 365 500
500 232 292 419 643 534 999 115 356 161 716 144 1120 -26 644 -265 1279 -679
1802 -105 134 -364 393 -498 498 -612 484 -1334 715 -2127 680z m402 -79 c728
-58 1418 -375 1933 -891 697 -696 1019 -1695 860 -2659 -106 -641 -404 -1223
-860 -1679 -493 -493 -1125 -797 -1834 -882 -142 -17 -528 -17 -670 0 -709 85
-1341 389 -1834 882 -456 456 -754 1038 -860 1679 -159 964 163 1963 860 2659
632 632 1519 961 2405 891z"/>
<path d="M3155 5868 c-117 -13 -291 -54 -423 -100 -724 -249 -1318 -986 -1462
-1814 -45 -261 -51 -619 -15 -889 78 -584 321 -1057 720 -1402 329 -285 699
-446 1190 -520 175 -26 651 -26 820 1 416 65 782 220 1088 463 94 75 292 268
319 311 l21 34 -82 166 c-46 92 -123 242 -173 334 -78 145 -94 168 -114 168
-15 0 -63 -31 -125 -81 -356 -283 -711 -442 -1107 -494 -146 -19 -394 -19
-505 0 -392 68 -781 346 -937 670 -46 95 -95 269 -77 272 7 1 163 14 347 28
1428 110 2293 193 2464 235 182 45 292 161 332 350 32 148 -2 513 -71 763
-104 379 -295 699 -586 983 -303 294 -655 464 -1075 519 -126 16 -417 18 -549
3z m351 -899 c192 -33 369 -127 526 -277 182 -174 283 -375 304 -607 6 -65 4
-78 -11 -95 -29 -32 -133 -58 -354 -90 -467 -67 -897 -106 -1287 -119 -379
-12 -414 -2 -414 122 0 137 53 332 126 466 126 230 374 459 588 542 160 62
369 86 522 58z"/>
</g>
</svg>
