<?xml version="1.0" standalone="no"?>
<!DOCTYPE svg PUBLIC "-//W3C//DTD SVG 20010904//EN"
 "http://www.w3.org/TR/2001/REC-SVG-20010904/DTD/svg10.dtd">
<svg version="1.0" xmlns="http://www.w3.org/2000/svg"
 width="806.000000pt" height="806.000000pt" viewBox="0 0 806.000000 806.000000"
 preserveAspectRatio="xMidYMid meet">
<metadata>
Created by potrace 1.14, written by Peter Selinger 2001-2017
</metadata>
<g transform="translate(0.000000,806.000000) scale(0.100000,-0.100000)"
fill="#000000" stroke="none">
<path d="M5499 6847 c-1 -7 -3 -28 -6 -47 -6 -55 13 -136 72 -291 47 -125 53
-151 50 -204 -5 -106 -91 -227 -194 -276 -82 -38 -224 -69 -294 -63 -65 5
-129 11 -212 18 -142 13 -308 19 -465 18 -150 -1 -285 -7 -285 -12 0 -1 -17
-3 -39 -5 -36 -3 -87 -10 -147 -20 -13 -2 -42 -6 -64 -10 -22 -3 -56 -10 -75
-15 -19 -5 -48 -11 -65 -14 -42 -7 -43 -7 -250 -60 -5 -2 -37 -11 -70 -21 -33
-11 -62 -19 -65 -20 -16 -4 -147 -48 -215 -73 -120 -44 -172 -65 -300 -122
-11 -5 -82 -38 -157 -74 -75 -36 -139 -66 -142 -66 -2 0 -39 -20 -80 -45 -42
-25 -79 -45 -81 -45 -19 0 -532 -308 -710 -427 -84 -56 -140 -83 -171 -83 -29
0 -106 20 -114 30 -3 4 -27 17 -53 31 -27 13 -63 32 -80 41 -50 27 -185 79
-257 98 -76 21 -124 30 -260 45 -39 5 -179 12 -400 20 -171 6 -257 14 -342 30
-16 3 -28 1 -28 -3 0 -26 72 -107 258 -292 229 -227 260 -255 397 -359 22 -17
45 -34 50 -39 10 -8 70 -43 135 -79 19 -11 52 -26 73 -32 l39 -13 -25 -27
c-44 -47 -98 -157 -113 -226 -14 -72 -16 -84 -29 -174 -4 -25 -17 -65 -30 -90
-12 -25 -26 -60 -29 -78 l-7 -31 43 13 c87 26 204 89 301 162 31 24 60 43 63
43 14 0 221 219 259 274 22 31 71 107 108 169 96 157 111 169 237 192 14 3 48
9 75 15 28 6 57 11 65 12 8 0 35 5 60 10 25 5 56 12 70 14 14 2 36 7 50 9 14
3 45 7 70 10 46 5 110 14 145 21 11 2 36 6 55 9 19 3 49 7 65 10 212 39 231
42 400 52 156 10 578 10 680 -1 44 -4 96 -9 115 -11 34 -3 154 -20 196 -29 12
-2 37 -7 55 -10 19 -3 45 -8 59 -10 14 -3 52 -10 85 -15 148 -27 264 -56 415
-107 74 -24 144 -48 155 -53 11 -5 40 -17 65 -27 25 -9 73 -30 108 -46 35 -15
65 -28 68 -28 7 0 193 -93 260 -130 108 -60 363 -219 384 -240 6 -6 82 -59
114 -80 172 -110 341 -248 373 -306 11 -20 8 -22 -40 -33 -88 -19 -176 -15
-272 11 -50 14 -46 13 -70 23 -11 4 -76 30 -145 57 -69 27 -139 56 -157 64
-17 7 -34 14 -38 14 -3 0 -25 8 -48 19 -23 10 -71 31 -107 47 -36 15 -87 41
-114 57 l-49 28 6 -30 c4 -17 38 -78 77 -136 38 -57 70 -107 70 -109 0 -7 120
-190 129 -196 4 -3 18 -20 31 -39 29 -42 110 -122 153 -152 17 -13 34 -26 37
-30 9 -11 137 -87 211 -125 67 -33 235 -102 269 -109 8 -2 16 -4 18 -5 1 -2 7
-4 12 -5 6 -1 11 -3 13 -5 1 -1 9 -3 17 -5 8 -2 62 -18 120 -35 58 -17 110
-33 115 -34 6 -2 24 -6 40 -10 17 -5 72 -24 123 -43 75 -29 104 -45 143 -85
27 -27 47 -53 44 -58 -3 -4 -1 -10 4 -12 4 -1 25 -46 45 -98 93 -238 153 -321
375 -520 132 -119 142 -128 216 -200 100 -96 185 -197 185 -219 0 -6 4 -11 9
-11 17 0 87 -197 106 -300 13 -71 40 -142 62 -166 28 -31 74 -32 106 -1 35 33
90 159 103 237 10 59 13 75 14 75 1 0 3 20 5 45 3 42 9 94 21 165 3 16 15 43
28 60 45 59 115 228 130 315 2 14 9 45 16 70 7 25 14 56 16 70 3 14 7 33 10
42 3 9 7 27 9 40 3 13 10 48 16 78 7 30 13 64 15 75 1 11 3 20 4 20 3 0 18 79
26 145 7 48 12 75 14 75 0 0 3 29 6 65 9 102 10 259 3 330 -17 151 -21 182
-25 203 -2 12 -7 41 -10 65 -2 24 -9 55 -15 70 -6 15 -10 28 -9 30 3 6 -14 73
-47 187 -20 66 -36 125 -38 130 -8 36 -19 71 -25 80 -4 6 -10 24 -14 40 -12
48 -46 113 -122 230 -59 91 -230 333 -261 370 -5 6 -33 42 -63 80 -30 39 -59
75 -64 81 -6 6 -33 37 -61 70 -62 73 -270 280 -314 314 -18 14 -38 30 -44 35
-7 6 -41 33 -77 60 -133 100 -173 150 -199 250 -6 22 -33 114 -61 205 -28 91
-52 170 -53 175 -2 6 -16 44 -32 85 -43 113 -108 234 -183 340 -71 100 -291
330 -379 395 -29 22 -53 43 -53 47 0 4 -5 8 -10 8 -6 0 -21 9 -33 21 -12 11
-35 28 -52 36 -16 9 -32 19 -35 24 -3 4 -38 24 -78 44 -83 41 -191 70 -193 52z"/>
</g>
</svg>
