<?xml version="1.0" standalone="no"?>
<!DOCTYPE svg PUBLIC "-//W3C//DTD SVG 20010904//EN"
 "http://www.w3.org/TR/2001/REC-SVG-20010904/DTD/svg10.dtd">
<svg version="1.0" xmlns="http://www.w3.org/2000/svg"
 width="97.000000pt" height="97.000000pt" viewBox="0 0 97.000000 97.000000"
 preserveAspectRatio="xMidYMid meet">
<metadata>
Created by potrace 1.11, written by Peter Selinger 2001-2013
</metadata>
<g transform="translate(0.000000,97.000000) scale(0.100000,-0.100000)"
fill="#000000" stroke="none">
<path d="M381 825 c-123 -39 -241 -177 -241 -281 0 -23 -3 -24 -64 -24 -60 0
-64 -2 -68 -24 -7 -37 2 -43 64 -41 l58 2 16 -56 c30 -105 91 -178 194 -232
39 -20 59 -24 145 -24 90 0 105 3 152 28 95 49 162 131 186 227 l14 55 42 2
c22 0 49 2 60 2 21 1 33 32 21 51 -5 8 -31 13 -65 14 l-58 1 -14 55 c-25 100
-108 194 -208 235 -66 26 -169 31 -234 10z m226 -81 c64 -31 126 -99 147 -161
9 -26 16 -50 16 -54 0 -4 -24 -7 -52 -7 -97 -1 -93 1 -93 -32 0 -16 5 -30 10
-31 6 0 38 0 73 0 l62 0 -6 -27 c-21 -85 -78 -158 -158 -200 -68 -35 -169 -37
-236 -4 -84 40 -154 126 -162 198 l-3 29 68 0 67 -1 0 33 0 33 -70 0 c-82 0
-84 5 -46 85 72 150 237 210 383 139z"/>
<path d="M461 559 c-93 -36 -47 -171 47 -138 59 20 68 103 14 130 -37 18 -34
18 -61 8z"/>
</g>
</svg>
