<?xml version="1.0" standalone="no"?>
<!DOCTYPE svg PUBLIC "-//W3C//DTD SVG 20010904//EN"
 "http://www.w3.org/TR/2001/REC-SVG-20010904/DTD/svg10.dtd">
<svg version="1.0" xmlns="http://www.w3.org/2000/svg"
 width="700.000000pt" height="700.000000pt" viewBox="0 0 700.000000 700.000000"
 preserveAspectRatio="xMidYMid meet">
<metadata>
Created by potrace 1.11, written by Peter Selinger 2001-2013
</metadata>
<g transform="translate(0.000000,700.000000) scale(0.100000,-0.100000)"
fill="#000000" stroke="none">
<path d="M3260 6990 c-398 -50 -679 -140 -1005 -323 -60 -34 -256 -164 -265
-176 -3 -4 -15 -14 -27 -22 -45 -31 -141 -117 -233 -209 -309 -309 -528 -689
-645 -1120 -9 -31 -54 -256 -59 -295 -33 -232 -26 -551 19 -800 66 -372 245
-764 493 -1085 71 -92 295 -321 377 -385 28 -22 55 -43 60 -48 84 -66 269
-187 286 -187 5 0 34 50 64 111 58 114 248 465 289 532 7 12 25 43 39 68 l26
46 -72 48 c-362 240 -620 623 -703 1040 -4 22 -8 42 -9 45 -7 28 -19 177 -20
264 -7 649 384 1245 987 1504 88 38 234 85 298 96 14 2 36 7 50 10 61 14 105
17 250 21 85 2 184 0 220 -5 36 -5 81 -12 100 -14 87 -12 265 -66 370 -112
410 -183 718 -510 875 -929 104 -278 124 -526 71 -875 -8 -56 -64 -249 -76
-265 -4 -5 -11 -21 -15 -35 -25 -84 -166 -322 -244 -414 -111 -130 -250 -255
-372 -334 l-67 -43 107 -187 c110 -192 159 -282 251 -457 29 -55 56 -104 60
-108 6 -7 134 66 185 105 124 94 245 195 303 251 101 99 247 264 292 333 8 12
41 61 72 108 160 239 308 598 354 854 2 12 6 34 9 50 3 15 8 43 11 62 3 19 7
46 9 60 25 146 24 546 0 665 -3 11 -7 36 -10 55 -41 286 -160 623 -299 854
-20 32 -36 60 -36 62 0 8 -114 170 -164 234 -258 329 -608 599 -989 760 -103
44 -249 96 -288 104 -13 2 -36 9 -51 15 -16 6 -28 9 -28 6 0 -2 -21 2 -47 10
-51 15 -62 16 -223 41 -112 17 -482 26 -580 14z"/>
<path d="M3448 5435 c-2 -2 -30 -5 -63 -9 -68 -6 -84 -10 -175 -38 -324 -102
-576 -395 -630 -732 -11 -72 -14 -229 -5 -281 13 -71 18 -93 37 -155 56 -176
180 -352 323 -458 51 -38 61 -41 71 -28 9 14 55 94 167 299 23 42 152 293 308
599 l19 37 134 -262 c158 -310 198 -386 313 -589 65 -116 55 -117 196 12 143
130 246 333 282 554 8 47 8 198 0 251 -28 189 -126 385 -257 518 -58 58 -169
147 -184 147 -3 0 -18 8 -32 18 -55 38 -210 92 -307 107 -37 6 -193 14 -197
10z"/>
<path d="M3457 3603 c-49 -90 -60 -108 -309 -543 -118 -206 -232 -406 -253
-445 -20 -38 -48 -89 -61 -111 -46 -82 -233 -461 -277 -564 -128 -298 -202
-564 -200 -722 2 -156 79 -370 198 -554 56 -86 55 -85 138 -184 190 -228 464
-405 715 -464 189 -44 410 27 642 207 240 186 447 472 538 743 95 281 69 492
-113 924 -58 136 -254 526 -355 705 -70 124 -267 468 -295 515 -18 30 -46 78
-62 106 -136 242 -259 454 -263 454 -3 0 -23 -30 -43 -67z"/>
</g>
</svg>
