<?xml version="1.0" standalone="no"?>
<!DOCTYPE svg PUBLIC "-//W3C//DTD SVG 20010904//EN"
 "http://www.w3.org/TR/2001/REC-SVG-20010904/DTD/svg10.dtd">
<svg version="1.0" xmlns="http://www.w3.org/2000/svg"
 width="500.000000pt" height="500.000000pt" viewBox="0 0 500.000000 500.000000"
 preserveAspectRatio="xMidYMid meet">
<metadata>
Created by potrace 1.11, written by Peter Selinger 2001-2013
</metadata>
<g transform="translate(0.000000,500.000000) scale(0.100000,-0.100000)"
fill="#000000" stroke="none">
<path d="M2245 4989 c-249 -30 -467 -85 -683 -175 -205 -85 -272 -133 -313
-222 -42 -90 -23 -221 41 -290 93 -100 217 -118 355 -53 124 59 168 78 245
104 76 26 185 56 230 63 14 2 34 6 45 9 22 4 86 13 150 20 47 5 314 5 365 0
44 -4 129 -16 155 -21 11 -3 43 -9 70 -15 193 -38 447 -144 631 -264 99 -65
87 -55 189 -142 170 -144 328 -331 423 -503 182 -325 267 -648 266 -1005 0
-244 -29 -423 -105 -650 -142 -428 -436 -802 -804 -1026 -49 -30 -99 -60 -110
-67 -11 -7 -36 -19 -55 -28 -19 -8 -54 -24 -78 -35 -222 -101 -494 -158 -762
-157 -137 0 -197 4 -315 23 -60 9 -139 25 -179 37 -23 6 -45 12 -51 14 -108
25 -351 139 -488 228 -347 224 -628 589 -765 991 -48 141 -71 238 -94 395 -11
75 -19 429 -10 462 3 15 14 11 66 -27 34 -24 125 -82 201 -130 244 -150 398
-289 470 -426 36 -68 92 -128 123 -130 9 -1 28 -3 42 -4 37 -5 94 12 124 36
15 12 39 46 53 75 55 118 233 293 418 414 399 261 490 344 574 521 55 115 70
196 66 349 -4 151 -28 259 -85 379 -93 193 -223 307 -430 377 -41 14 -85 19
-175 19 -150 0 -190 -9 -308 -64 -66 -32 -148 -90 -198 -141 l-25 -26 -44 44
c-68 67 -174 132 -269 166 -75 26 -100 30 -196 30 -184 1 -281 -29 -415 -130
-101 -76 -154 -145 -248 -324 -129 -243 -236 -566 -268 -805 -3 -27 -8 -59
-10 -70 -23 -115 -22 -522 0 -655 5 -32 19 -120 22 -140 4 -29 12 -66 42 -185
159 -631 570 -1186 1121 -1512 114 -67 330 -173 354 -173 7 0 17 -4 23 -9 12
-12 275 -90 359 -107 163 -32 180 -33 505 -33 364 0 411 5 622 59 254 65 457
151 677 287 298 184 575 457 773 763 56 86 149 258 183 340 10 25 26 63 36 85
52 123 123 382 149 545 6 41 13 86 16 100 20 130 20 506 0 617 -2 10 -7 43
-11 73 -5 30 -9 62 -11 70 -39 261 -187 661 -325 875 -68 106 -141 214 -157
232 -10 10 -43 50 -74 88 -179 221 -469 452 -744 593 -177 90 -429 184 -554
206 -14 2 -46 9 -71 15 -25 6 -61 12 -80 15 -52 7 -121 17 -149 23 -46 9 -454
10 -525 2z"/>
</g>
</svg>
