<?xml version="1.0" standalone="no"?>
<!DOCTYPE svg PUBLIC "-//W3C//DTD SVG 20010904//EN"
 "http://www.w3.org/TR/2001/REC-SVG-20010904/DTD/svg10.dtd">
<svg version="1.0" xmlns="http://www.w3.org/2000/svg"
 width="700.000000pt" height="700.000000pt" viewBox="0 0 700.000000 700.000000"
 preserveAspectRatio="xMidYMid meet">
<metadata>
Created by potrace 1.14, written by Peter Selinger 2001-2017
</metadata>
<g transform="translate(0.000000,700.000000) scale(0.100000,-0.100000)"
fill="#000000" stroke="none">
<path d="M4394 6937 c-119 -107 -217 -210 -353 -372 -249 -297 -602 -976 -768
-1475 -39 -120 -126 -439 -138 -512 -3 -16 -7 -43 -10 -60 -3 -18 -8 -40 -11
-49 -2 -9 -11 -52 -19 -95 -8 -43 -17 -91 -20 -106 -11 -60 -27 -167 -39 -267
-28 -228 -29 -725 -1 -911 2 -14 7 -47 10 -75 4 -27 8 -57 10 -65 2 -8 7 -37
11 -65 3 -27 8 -53 10 -56 2 -3 6 -21 9 -40 3 -19 17 -82 31 -142 l26 -107 66
37 c209 117 384 263 595 496 198 219 445 585 592 877 116 230 256 682 320
1027 3 16 7 38 9 50 3 11 8 43 12 70 3 26 8 55 9 64 6 29 25 202 30 269 6 78
7 361 1 410 -2 19 -7 67 -11 105 -4 39 -8 77 -10 85 -2 8 -6 35 -9 60 -3 25
-11 72 -17 105 -6 33 -12 70 -14 82 -2 11 -6 30 -10 42 -3 11 -8 33 -11 48
-27 153 -148 494 -214 605 l-16 27 -70 -62z"/>
<path d="M777 4656 c-21 -31 -81 -196 -110 -301 -36 -129 -71 -316 -82 -435
-3 -30 -7 -77 -9 -105 -3 -27 -8 -86 -12 -130 -12 -141 -4 -550 11 -575 2 -3
7 -33 10 -65 4 -33 9 -63 11 -66 2 -3 6 -21 9 -40 10 -66 27 -135 62 -254 159
-551 392 -926 733 -1181 80 -60 255 -164 276 -164 5 0 30 37 56 83 114 200
150 286 224 542 21 74 17 54 52 215 51 230 65 362 64 610 0 235 -7 290 -63
500 -89 339 -200 579 -372 807 -175 234 -415 422 -652 512 -33 13 -69 27 -80
31 -11 5 -41 15 -67 23 -45 15 -47 15 -61 -7z"/>
<path d="M5858 2875 c-2 -1 -33 -5 -69 -9 -347 -32 -791 -227 -1172 -515 -93
-70 -307 -252 -406 -345 -307 -288 -543 -580 -751 -929 -12 -21 -78 -149 -146
-285 l-124 -247 23 -17 c36 -29 167 -92 237 -116 142 -47 269 -66 435 -66 288
0 599 81 884 231 57 30 115 62 130 72 14 9 66 44 116 77 79 52 210 150 300
224 37 32 310 303 350 350 68 78 206 252 232 292 15 24 31 45 36 46 4 2 7 8 7
14 0 5 13 28 29 51 41 62 159 275 223 408 78 158 141 315 204 504 l53 160 -42
19 c-48 22 -156 54 -207 62 -19 3 -48 8 -65 11 -32 5 -272 13 -277 8z"/>
<path d="M2821 2463 c-8 -21 -45 -114 -83 -208 -70 -172 -79 -193 -116 -275
-11 -25 -32 -74 -47 -110 -38 -91 -118 -268 -233 -515 -76 -164 -393 -798
-414 -827 -11 -16 -16 -28 -13 -28 3 0 -2 -12 -13 -27 -10 -16 -33 -57 -52
-93 -37 -73 -68 -131 -146 -271 -30 -54 -54 -100 -54 -103 0 -3 141 -6 313 -6
l312 0 20 37 c11 21 42 78 69 128 65 120 353 690 445 884 90 189 285 624 353
786 27 66 56 134 63 150 40 91 125 307 125 316 0 6 -3 9 -7 7 -5 -2 -57 -27
-118 -57 -60 -29 -143 -66 -183 -81 l-72 -28 -15 35 c-17 40 -66 173 -69 188
-11 49 -40 135 -45 135 -4 0 -13 -17 -20 -37z"/>
</g>
</svg>
