<?xml version="1.0" standalone="no"?>
<!DOCTYPE svg PUBLIC "-//W3C//DTD SVG 20010904//EN"
 "http://www.w3.org/TR/2001/REC-SVG-20010904/DTD/svg10.dtd">
<svg version="1.0" xmlns="http://www.w3.org/2000/svg"
 width="310.000000pt" height="310.000000pt" viewBox="0 0 310.000000 310.000000"
 preserveAspectRatio="xMidYMid meet">
<metadata>
Created by potrace 1.11, written by Peter Selinger 2001-2013
</metadata>
<g transform="translate(0.000000,310.000000) scale(0.100000,-0.100000)"
fill="#000000" stroke="none">
<path d="M1570 3085 c-8 -2 -49 -9 -90 -15 -107 -17 -294 -81 -401 -136 -114
-59 -215 -135 -339 -253 -52 -49 -96 -87 -98 -83 -1 4 -16 28 -32 54 -55 88
-148 125 -243 99 -66 -19 -167 -99 -215 -170 -71 -106 -85 -158 -86 -301 -1
-142 11 -191 69 -279 19 -29 35 -62 35 -73 0 -11 -23 -90 -51 -177 -50 -154
-50 -158 -56 -316 -7 -200 12 -340 67 -506 90 -272 225 -465 451 -645 163
-130 320 -208 520 -258 86 -22 125 -26 244 -26 198 0 326 35 484 132 36 23
116 70 176 106 246 144 330 196 408 252 334 240 537 536 614 893 15 66 18 128
17 322 0 236 -1 242 -31 356 -66 249 -165 415 -362 609 -309 304 -572 422
-935 419 -72 -1 -138 -3 -146 -4z m415 -159 c437 -114 830 -558 921 -1041 22
-117 14 -359 -15 -485 -71 -307 -222 -564 -429 -731 -92 -75 -167 -124 -457
-299 -377 -228 -470 -263 -700 -263 -120 0 -154 4 -240 26 -422 113 -755 476
-871 951 -59 243 -36 494 65 711 40 86 133 227 344 524 258 364 431 497 772
596 137 40 177 44 350 41 133 -3 177 -8 260 -30z m-1496 -313 c61 -45 77 -143
36 -224 -18 -36 -54 -79 -65 -79 -4 0 -10 33 -14 72 -7 74 -23 105 -49 95 -10
-4 -17 -28 -22 -79 -14 -150 -65 -316 -103 -337 -26 -14 -56 8 -85 62 -32 61
-32 226 1 308 54 136 142 214 231 206 24 -3 55 -13 70 -24z"/>
<path d="M1972 2083 c-62 -30 -130 -101 -164 -171 -30 -61 -33 -74 -32 -157 1
-116 26 -185 94 -255 45 -46 147 -105 216 -125 33 -9 54 19 54 73 0 62 15 115
40 137 13 12 53 21 134 30 140 17 200 41 260 105 76 82 95 199 46 290 l-19 35
-1 -41 c-1 -107 -66 -217 -159 -267 -42 -23 -72 -31 -158 -39 -59 -5 -119 -16
-134 -23 -53 -28 -99 -105 -99 -168 0 -16 -2 -16 -38 2 -180 92 -186 362 -12
541 42 43 46 50 27 50 -12 0 -37 -8 -55 -17z"/>
<path d="M876 1671 c-9 -10 -21 -33 -26 -52 -37 -129 39 -273 169 -317 45 -16
153 -15 173 1 48 38 13 93 -68 106 -91 14 -145 65 -159 148 -2 15 -7 45 -10
65 -10 62 -46 85 -79 49z"/>
<path d="M1593 895 c-69 -48 -39 -202 56 -288 88 -80 261 -91 261 -17 0 21
-25 50 -43 50 -7 0 -40 13 -74 29 -72 35 -104 75 -127 165 -19 75 -35 88 -73
61z"/>
<path d="M689 844 c-7 -9 -15 -41 -17 -72 -6 -85 25 -158 93 -220 62 -57 121
-78 208 -75 64 2 89 16 85 47 -2 17 -16 24 -71 38 -130 32 -198 95 -226 205
-25 95 -42 113 -72 77z"/>
</g>
</svg>
