<?xml version="1.0" standalone="no"?>
<!DOCTYPE svg PUBLIC "-//W3C//DTD SVG 20010904//EN"
 "http://www.w3.org/TR/2001/REC-SVG-20010904/DTD/svg10.dtd">
<svg version="1.0" xmlns="http://www.w3.org/2000/svg"
 width="568.000000pt" height="568.000000pt" viewBox="0 0 568.000000 568.000000"
 preserveAspectRatio="xMidYMid meet">
<metadata>
Created by potrace 1.14, written by Peter Selinger 2001-2017
</metadata>
<g transform="translate(0.000000,568.000000) scale(0.100000,-0.100000)"
fill="#000000" stroke="none">
<path d="M465 5645 c-161 -47 -289 -157 -358 -306 -49 -107 -47 5 -45 -2531
l3 -2363 27 -69 c29 -74 88 -168 128 -202 14 -12 38 -33 54 -47 47 -40 115
-74 196 -96 l75 -21 2320 2 2320 3 67 26 c92 36 158 80 223 150 59 65 121 180
133 250 4 24 7 1110 7 2414 0 2541 3 2382 -48 2495 -37 82 -140 198 -203 230
-16 8 -40 22 -54 31 -14 8 -54 24 -90 34 -62 18 -159 19 -2375 19 -2296 1
-2310 1 -2380 -19z"/>
</g>
</svg>
