<?xml version="1.0" standalone="no"?>
<!DOCTYPE svg PUBLIC "-//W3C//DTD SVG 20010904//EN"
 "http://www.w3.org/TR/2001/REC-SVG-20010904/DTD/svg10.dtd">
<svg version="1.0" xmlns="http://www.w3.org/2000/svg"
 width="700.000000pt" height="700.000000pt" viewBox="0 0 700.000000 700.000000"
 preserveAspectRatio="xMidYMid meet">
<metadata>
Created by potrace 1.14, written by Peter Selinger 2001-2017
</metadata>
<g transform="translate(0.000000,700.000000) scale(0.100000,-0.100000)"
fill="#000000" stroke="none">
<path d="M3583 6986 c-7 -11 -90 -109 -128 -150 -6 -6 -39 -45 -74 -86 -35
-41 -87 -102 -116 -135 -29 -33 -103 -118 -165 -190 -61 -71 -138 -159 -169
-195 -32 -36 -91 -103 -130 -150 -40 -47 -85 -98 -99 -115 -29 -33 -137 -158
-211 -244 -25 -30 -51 -59 -57 -65 -5 -6 -39 -45 -74 -86 -36 -41 -69 -80 -75
-86 -14 -15 -85 -97 -255 -294 -78 -91 -166 -192 -195 -225 -76 -88 -382 -441
-440 -510 -27 -32 -57 -65 -66 -74 -8 -9 -73 -83 -144 -166 -71 -82 -134 -155
-139 -161 -6 -6 -31 -35 -56 -64 -25 -29 -50 -58 -55 -64 -6 -6 -52 -60 -104
-119 -63 -74 -97 -105 -105 -99 -10 9 -71 41 -431 227 -82 43 -183 95 -223
117 l-72 39 0 -2046 0 -2045 231 0 232 0 24 27 c204 231 392 512 593 888 48
89 310 612 310 618 0 2 41 88 90 190 50 103 90 189 90 191 0 3 31 71 70 151
38 80 70 148 70 150 0 2 26 59 59 127 32 67 73 155 91 193 18 39 47 102 65
140 18 39 54 115 80 170 26 55 60 127 75 160 15 33 47 101 70 150 78 167 94
200 95 205 1 3 27 58 58 123 31 65 57 120 57 122 0 1 29 63 64 137 35 73 75
158 89 188 13 30 44 96 67 145 82 173 123 260 150 320 36 78 92 199 142 305
22 47 85 182 140 300 55 118 119 256 143 305 38 79 199 423 290 620 18 38 47
101 65 139 l32 68 14 -28 c7 -16 40 -87 74 -158 33 -70 60 -130 60 -131 0 -1
26 -58 59 -126 93 -198 132 -280 161 -344 15 -33 45 -98 67 -145 22 -47 55
-116 73 -155 18 -38 53 -113 77 -165 67 -141 103 -220 176 -375 35 -77 92
-198 126 -269 33 -70 61 -130 61 -132 0 -1 32 -69 70 -149 39 -80 70 -148 70
-150 0 -2 26 -59 59 -127 32 -67 71 -150 86 -183 16 -33 48 -103 73 -155 24
-52 57 -122 72 -155 28 -61 225 -481 307 -655 25 -52 67 -144 95 -205 28 -60
81 -175 119 -254 38 -79 69 -145 69 -147 0 -3 42 -93 168 -359 31 -66 129
-264 217 -440 271 -537 456 -841 643 -1052 l64 -73 192 0 192 0 -1 2139 c0
1177 -2 2141 -5 2144 -3 2 -52 43 -110 91 -58 48 -114 95 -125 104 -11 9 -42
35 -70 57 -27 22 -52 43 -55 46 -3 3 -113 96 -245 205 -132 110 -251 209 -265
221 -14 12 -72 60 -130 108 -58 48 -146 122 -196 164 -50 42 -111 92 -135 112
-52 42 -304 253 -369 308 -25 21 -117 98 -205 171 -88 72 -171 142 -185 153
-14 12 -66 56 -115 97 -50 41 -101 85 -115 97 -70 61 -115 91 -125 84 -5 -5
-32 -21 -60 -36 -27 -15 -93 -52 -146 -81 -52 -30 -99 -54 -105 -54 -5 1 -126
170 -269 377 -370 535 -353 513 -372 479z"/>
<path d="M3491 4388 c-8 -18 -22 -51 -32 -73 -10 -22 -61 -141 -114 -265 -53
-124 -103 -238 -110 -255 -8 -16 -96 -219 -196 -450 -99 -231 -212 -492 -250
-579 -38 -88 -69 -162 -69 -165 0 -3 355 -6 790 -6 434 0 790 4 790 8 0 5 -7
23 -15 40 -17 39 -266 612 -345 797 -97 226 -221 513 -240 555 -10 22 -39 89
-65 150 -26 60 -54 127 -64 150 -10 22 -27 59 -37 83 -10 23 -20 42 -23 42 -4
0 -12 -15 -20 -32z"/>
<path d="M2385 1808 c-18 -52 -62 -166 -112 -293 -116 -291 -243 -695 -288
-920 -2 -11 -10 -51 -18 -90 -9 -38 -18 -92 -21 -120 -4 -27 -9 -57 -11 -65
-12 -45 -19 -213 -12 -308 0 -10 329 -12 1626 -10 l1626 3 1 75 c1 103 -15
259 -41 379 -46 219 -158 535 -373 1053 l-127 308 -1123 0 c-889 0 -1124 -3
-1127 -12z"/>
</g>
</svg>
