<?xml version="1.0" standalone="no"?>
<!DOCTYPE svg PUBLIC "-//W3C//DTD SVG 20010904//EN"
 "http://www.w3.org/TR/2001/REC-SVG-20010904/DTD/svg10.dtd">
<svg version="1.0" xmlns="http://www.w3.org/2000/svg"
 width="700.000000pt" height="700.000000pt" viewBox="0 0 700.000000 700.000000"
 preserveAspectRatio="xMidYMid meet">
<metadata>
Created by potrace 1.14, written by Peter Selinger 2001-2017
</metadata>
<g transform="translate(0.000000,700.000000) scale(0.100000,-0.100000)"
fill="#000000" stroke="none">
<path d="M3353 6922 c-33 -42 -111 -150 -174 -240 -63 -89 -138 -197 -168
-240 -94 -132 -167 -239 -326 -472 -227 -332 -226 -332 -379 -308 -21 3 -36
-29 -192 -402 -82 -198 -99 -230 -135 -262 -28 -26 -51 -38 -73 -39 -17 0
-141 -1 -275 -2 l-244 -2 -23 -70 c-12 -38 -79 -254 -149 -480 -136 -442 -159
-507 -183 -527 -11 -10 -82 -13 -291 -14 -364 -2 -335 1 -374 -33 -30 -27 -65
-99 -49 -102 4 -1 1363 -2 3020 -3 l3013 -2 -7 30 c-9 44 -33 71 -84 99 -24
13 -52 35 -62 48 -10 13 -173 391 -361 839 -433 1026 -456 1075 -493 1041 -5
-5 -49 -30 -99 -57 -49 -26 -154 -82 -231 -124 -205 -111 -245 -122 -283 -74
-19 24 -20 36 -16 158 10 268 -44 364 -310 553 -194 139 -359 264 -570 433
-191 153 -394 313 -411 323 -7 4 -35 -24 -71 -71z m179 -281 c4 -3 24 -40 46
-81 21 -41 79 -151 127 -245 135 -260 207 -391 267 -490 46 -76 155 -309 162
-348 1 -7 10 -37 18 -67 34 -114 61 -271 75 -431 8 -98 8 -407 -1 -489 -5 -45
-4 -62 3 -55 6 6 62 113 124 237 188 373 287 498 470 587 62 30 205 72 219 64
4 -2 0 -23 -9 -46 -19 -53 -25 -170 -11 -205 15 -35 101 -172 109 -172 3 0 6
6 6 13 1 6 24 84 53 172 29 88 55 170 57 182 5 21 50 39 65 25 12 -12 608
-1413 604 -1420 -7 -11 -4601 -8 -4599 3 1 6 43 129 94 275 50 146 102 300
116 343 16 52 28 75 36 71 7 -4 41 -28 77 -53 36 -25 84 -60 108 -76 24 -17
52 -36 62 -43 18 -13 19 -12 11 15 -11 37 -66 177 -104 265 -9 21 -13 39 -9
42 13 8 166 18 277 17 127 0 181 18 214 72 10 18 47 106 81 197 61 162 93 221
141 258 56 44 142 53 227 26 88 -29 118 -66 186 -239 65 -162 138 -327 143
-321 5 5 4 386 -1 513 -3 63 -9 90 -26 117 -26 43 -86 92 -160 131 -30 16 -67
36 -81 44 l-27 16 222 311 c121 171 255 359 296 418 41 59 89 126 106 149 17
23 62 86 99 139 62 88 71 97 94 91 14 -3 29 -8 33 -12z"/>
<path d="M1076 3263 c37 -54 77 -111 88 -128 12 -16 26 -33 31 -37 13 -10 28
-9 -335 -11 -332 -2 -335 -3 -374 -62 -21 -31 -28 -75 -13 -76 7 0 443 -2 970
-2 l958 -2 -6 35 c-7 36 -34 73 -70 93 -14 9 -137 12 -419 13 l-398 1 -20 24
c-10 13 -55 75 -99 137 l-80 112 -150 0 -151 0 68 -97z"/>
<path d="M5828 3223 l-3 -136 -710 -1 c-668 -1 -712 -2 -737 -19 -43 -29 -74
-110 -45 -119 6 -2 428 -3 937 -3 l925 1 1 27 c1 35 -29 84 -61 99 -25 11 -25
12 -25 150 l0 138 -140 0 -139 0 -3 -137z"/>
<path d="M1498 2682 c-23 -2 -35 -7 -33 -15 5 -11 27 -118 75 -347 11 -52 29
-138 40 -190 11 -52 22 -104 24 -115 4 -19 -2 -20 -198 -21 -194 0 -204 -1
-234 -23 -34 -24 -62 -68 -62 -98 0 -18 33 -19 838 -18 l837 0 -3 25 c-4 31
-29 67 -66 94 -26 20 -40 21 -427 21 -346 0 -400 2 -403 15 -4 13 -59 279 -71
338 -2 13 -6 31 -9 40 -3 9 -7 28 -10 42 -13 78 -49 236 -55 242 -7 8 -181 15
-243 10z"/>
<path d="M5345 2652 c-111 -52 -222 -170 -316 -340 l-16 -29 -541 -1 c-534 0
-542 0 -576 -21 -33 -21 -66 -73 -66 -105 0 -14 84 -15 853 -13 l852 2 -3 25
c-8 62 -72 110 -151 111 -28 1 -51 6 -51 11 0 17 67 103 109 141 21 19 79 56
127 81 82 42 214 137 214 154 0 4 -87 7 -192 7 -180 0 -196 -2 -243 -23z"/>
<path d="M5124 1849 c-2 -4 1 -41 8 -82 l11 -75 -143 -214 c-78 -117 -148
-219 -154 -226 -9 -9 -87 -13 -327 -15 -297 -2 -315 -3 -341 -22 -31 -24 -47
-48 -59 -87 l-8 -28 844 0 844 0 -9 31 c-28 98 -56 108 -305 108 -110 0 -237
0 -282 1 l-83 0 43 65 c23 36 91 139 150 229 94 143 107 166 98 187 -5 13 -17
49 -26 79 l-16 55 -121 0 c-66 0 -122 -3 -124 -6z"/>
<path d="M1761 1557 c-11 -11 -2 -48 48 -196 36 -109 61 -225 77 -371 2 -25 8
-73 12 -108 l7 -62 138 82 c75 46 206 124 290 174 l152 91 55 -56 c30 -32 135
-141 234 -244 98 -103 182 -185 186 -182 4 3 29 7 56 10 45 4 101 12 149 20
11 1 53 6 93 10 l72 7 71 -68 c40 -38 88 -85 109 -104 20 -19 111 -105 201
-190 90 -85 199 -189 243 -230 43 -41 93 -89 111 -106 18 -17 37 -29 42 -25 4
3 87 107 183 231 96 124 180 232 187 240 7 8 42 53 79 100 36 47 73 94 82 105
78 95 110 143 99 147 -6 2 -68 3 -137 2 l-125 -1 -28 -34 c-15 -19 -99 -127
-186 -241 l-159 -207 -250 247 c-472 465 -424 423 -463 412 -19 -5 -56 -11
-84 -14 -55 -6 -119 -14 -150 -21 -11 -2 -40 -7 -65 -10 l-46 -6 -262 266
-261 266 -218 -145 c-182 -121 -219 -142 -225 -128 -4 9 -21 89 -38 176 -16
87 -32 161 -34 163 -8 8 -237 8 -245 0z"/>
</g>
</svg>
