<?xml version="1.0" standalone="no"?>
<!DOCTYPE svg PUBLIC "-//W3C//DTD SVG 20010904//EN"
 "http://www.w3.org/TR/2001/REC-SVG-20010904/DTD/svg10.dtd">
<svg version="1.0" xmlns="http://www.w3.org/2000/svg"
 width="179.000000pt" height="179.000000pt" viewBox="0 0 179.000000 179.000000"
 preserveAspectRatio="xMidYMid meet">
<metadata>
Created by potrace 1.11, written by Peter Selinger 2001-2013
</metadata>
<g transform="translate(0.000000,179.000000) scale(0.100000,-0.100000)"
fill="#000000" stroke="none">
<path d="M729 1764 c-321 -58 -590 -298 -680 -606 -30 -104 -38 -329 -14 -453
62 -332 301 -596 612 -675 232 -60 517 -19 713 102 189 116 323 289 382 495
20 69 23 99 22 263 0 158 -3 197 -22 263 -87 315 -340 553 -649 613 -92 17
-263 17 -364 -2z m187 -184 l7 -51 25 36 c14 19 27 33 30 31 7 -7 -19 -79 -39
-108 -13 -17 -19 -44 -19 -79 l0 -53 45 44 c35 35 48 41 57 32 10 -10 0 -25
-45 -70 -43 -44 -57 -65 -57 -87 l0 -29 33 32 c28 27 36 30 45 19 9 -10 2 -23
-33 -57 -34 -33 -45 -52 -45 -74 0 -30 1 -29 73 42 60 59 76 71 85 59 9 -10
-6 -31 -73 -97 l-85 -85 0 -76 0 -77 67 36 67 37 31 115 c18 63 35 114 39 113
4 -1 11 -3 16 -5 6 -2 0 -40 -15 -92 -15 -48 -24 -90 -21 -93 2 -3 13 0 24 6
12 6 26 33 36 71 11 38 22 60 32 60 16 0 18 -27 4 -64 -5 -14 -6 -26 -1 -26
24 0 51 42 66 103 16 60 30 78 47 61 3 -3 -1 -26 -8 -51 -20 -65 -19 -66 26
-43 25 13 47 34 59 58 17 33 81 104 81 90 0 -3 -7 -21 -15 -41 l-14 -35 61 19
c33 11 63 18 65 15 2 -2 -19 -22 -47 -44 -56 -44 -56 -42 15 -55 14 -2 6 -8
-24 -16 -24 -7 -59 -10 -77 -6 -25 4 -44 0 -74 -17 -22 -13 -40 -26 -40 -29 0
-4 21 -12 48 -19 56 -15 64 -21 53 -38 -7 -11 -21 -10 -76 7 -80 25 -85 25
-110 7 -18 -13 -17 -15 23 -27 23 -6 42 -18 42 -26 0 -17 -23 -16 -83 2 -48
14 -87 8 -87 -14 0 -4 39 -19 86 -31 76 -21 107 -40 91 -56 -2 -3 -55 9 -116
27 l-112 32 -60 -29 c-33 -15 -63 -32 -65 -36 -6 -9 101 -78 120 -78 7 0 63
13 125 29 101 27 111 28 111 12 0 -13 -20 -22 -90 -41 -50 -12 -93 -26 -95
-30 -2 -4 6 -12 19 -18 18 -8 38 -7 78 4 67 18 78 17 78 -1 0 -9 -17 -19 -45
-26 -45 -11 -45 -12 -24 -27 20 -13 29 -13 95 2 40 10 78 15 84 11 20 -12 9
-24 -32 -35 -74 -19 -75 -19 -32 -45 27 -17 55 -25 89 -25 28 -1 64 -7 80 -14
l30 -13 -44 -7 -43 -7 51 -41 c28 -23 49 -43 48 -45 -5 -4 -100 28 -114 40
-17 12 -16 7 2 -36 8 -20 15 -40 15 -44 0 -17 -64 56 -80 92 -12 27 -31 47
-59 63 l-42 23 7 -28 c3 -15 10 -43 14 -60 5 -20 4 -35 -2 -39 -16 -10 -24 6
-42 80 -15 63 -35 95 -60 96 -7 0 -4 -25 10 -72 4 -13 0 -18 -14 -18 -16 0
-22 12 -32 61 -10 44 -20 65 -37 76 -13 9 -25 14 -27 12 -3 -2 7 -44 20 -94
28 -106 28 -101 10 -108 -14 -6 -19 8 -66 190 -9 36 -19 47 -69 77 -32 20 -61
36 -65 36 -3 0 -6 -33 -6 -72 l0 -73 87 -87 c69 -69 85 -90 75 -100 -10 -10
-28 3 -87 62 -73 72 -75 74 -75 45 0 -22 12 -42 47 -77 37 -37 44 -51 35 -60
-9 -9 -20 -4 -47 22 l-35 34 0 -30 c0 -23 13 -42 55 -84 43 -42 52 -57 43 -67
-9 -11 -19 -6 -55 29 l-43 42 0 -56 c0 -39 6 -62 19 -79 10 -13 21 -34 25 -46
19 -69 19 -69 -12 -33 l-29 34 -7 -54 c-10 -84 -21 -88 -35 -14 l-13 65 -30
-33 c-18 -20 -27 -26 -24 -15 3 11 9 31 13 45 3 15 14 38 25 51 12 17 18 41
18 79 l0 56 -44 -43 c-26 -26 -46 -39 -50 -32 -10 15 6 40 53 86 30 28 41 47
41 69 l0 30 -33 -32 c-23 -23 -36 -29 -47 -22 -12 8 -6 18 33 57 35 37 47 56
47 78 -1 29 -3 28 -70 -44 -60 -64 -71 -72 -85 -61 -14 12 -6 24 69 99 l86 86
0 73 c0 39 -2 72 -5 72 -15 0 -117 -65 -124 -79 -4 -9 -20 -62 -36 -118 -17
-65 -32 -103 -41 -103 -22 0 -22 13 2 95 30 103 31 112 2 93 -14 -9 -28 -36
-38 -72 -8 -31 -19 -57 -23 -57 -4 1 -12 1 -18 1 -10 0 -8 20 7 73 5 15 2 16
-21 5 -20 -9 -30 -26 -47 -85 -13 -44 -26 -73 -35 -73 -17 0 -16 15 1 73 8 26
13 47 11 47 -1 0 -23 -11 -48 -25 -26 -15 -50 -37 -57 -54 -12 -29 -80 -102
-80 -85 1 5 7 20 15 34 21 37 18 40 -17 26 -18 -7 -46 -17 -63 -20 l-30 -7 40
40 c21 23 46 41 55 42 8 0 -7 6 -35 13 l-50 12 51 12 c28 6 61 8 73 5 23 -6
124 34 116 47 -2 4 -29 13 -60 20 -57 14 -60 16 -47 38 7 10 22 8 73 -8 76
-23 99 -25 124 -7 16 13 14 15 -29 26 -29 7 -46 17 -46 26 0 19 10 19 81 -1
51 -14 60 -15 79 -1 26 18 26 18 -82 48 -79 21 -100 34 -83 51 3 3 57 -9 121
-27 l115 -32 65 34 c73 39 74 34 -18 87 l-47 27 -117 -30 c-65 -17 -119 -29
-122 -26 -16 15 17 34 97 54 50 13 91 27 91 32 0 18 -57 22 -112 7 -50 -13
-58 -13 -63 0 -7 18 -10 16 45 31 l44 13 -27 15 c-25 12 -35 12 -100 -6 -53
-14 -74 -17 -79 -8 -13 21 -9 23 54 38 l63 14 -46 27 c-34 20 -59 27 -95 26
-27 0 -62 6 -79 13 l-30 13 38 4 c20 2 37 5 37 7 0 3 -20 23 -45 46 -25 23
-44 44 -41 46 2 2 31 -7 64 -20 l60 -25 -14 41 -15 42 36 -35 c20 -19 38 -45
42 -58 5 -20 90 -88 99 -79 2 2 -3 27 -11 57 -11 42 -12 56 -2 62 22 14 25 9
42 -64 17 -69 37 -108 57 -108 5 0 6 20 2 45 -5 37 -4 45 9 45 15 0 21 -15 43
-103 5 -24 39 -55 49 -45 2 2 -7 46 -20 98 -14 52 -25 96 -25 98 0 1 8 2 18 2
15 0 24 -21 48 -116 l29 -116 56 -34 c31 -19 59 -34 63 -34 3 0 6 33 6 73 l0
72 -85 85 c-67 66 -82 87 -73 97 9 12 25 0 85 -59 72 -71 73 -72 73 -42 0 22
-11 41 -45 74 -35 34 -42 47 -33 57 9 11 17 8 45 -19 l33 -32 0 30 c0 23 -13
42 -55 84 -43 42 -52 57 -43 67 9 11 19 6 55 -29 l43 -42 0 53 c0 36 -6 62
-19 79 -18 26 -21 35 -36 92 -6 23 -4 22 23 -9 l29 -34 14 67 c14 74 23 69 35
-24z"/>
</g>
</svg>
