<?xml version="1.0" standalone="no"?>
<!DOCTYPE svg PUBLIC "-//W3C//DTD SVG 20010904//EN"
 "http://www.w3.org/TR/2001/REC-SVG-20010904/DTD/svg10.dtd">
<svg version="1.0" xmlns="http://www.w3.org/2000/svg"
 width="568.000000pt" height="568.000000pt" viewBox="0 0 568.000000 568.000000"
 preserveAspectRatio="xMidYMid meet">
<metadata>
Created by potrace 1.11, written by Peter Selinger 2001-2013
</metadata>
<g transform="translate(0.000000,568.000000) scale(0.100000,-0.100000)"
fill="#000000" stroke="none">
<path d="M2338 5675 c-1 -2 -32 -6 -68 -9 -36 -4 -76 -8 -90 -10 -34 -6 -118
-17 -160 -22 -19 -3 -42 -6 -50 -9 -8 -2 -37 -7 -65 -11 -27 -3 -54 -9 -59
-12 -5 -3 -23 -7 -40 -8 -32 -4 -71 -11 -71 -14 0 -1 -7 -3 -15 -5 -8 -2 -26
-6 -40 -9 -53 -11 -67 -14 -110 -26 -106 -28 -354 -110 -418 -137 -20 -9 -39
-17 -42 -18 -10 -3 -61 -25 -108 -46 -26 -12 -49 -21 -51 -20 -2 2 -7 -1 -10
-6 -3 -5 -24 -17 -46 -27 -22 -11 -42 -22 -45 -25 -3 -3 -32 -19 -64 -36 -33
-16 -64 -34 -70 -40 -6 -5 -38 -28 -71 -50 -91 -60 -151 -111 -250 -210 -113
-113 -126 -129 -189 -234 -107 -177 -141 -293 -141 -481 1 -107 6 -159 24
-218 5 -18 11 -36 12 -40 11 -45 60 -153 91 -205 87 -143 230 -297 373 -403
120 -88 113 -73 113 -236 1 -182 6 -207 48 -256 78 -92 211 -92 287 -2 36 42
39 69 34 275 -4 204 -6 217 -47 300 -38 77 -73 114 -195 204 -163 121 -275
246 -332 371 -18 39 -24 60 -40 130 -2 8 -3 44 -3 80 -1 209 165 437 452 621
118 76 113 73 223 127 136 67 229 108 265 118 8 2 62 19 120 39 91 31 189 60
240 70 8 2 15 4 15 6 0 1 9 3 20 5 11 1 74 14 140 28 66 13 138 28 160 31 104
16 109 17 210 30 256 32 761 38 990 11 22 -3 67 -8 100 -11 160 -17 249 -30
400 -61 66 -14 127 -27 135 -29 53 -12 155 -40 215 -58 39 -12 72 -22 75 -22
3 -1 12 -4 20 -7 43 -17 146 -53 150 -53 3 -1 23 -9 45 -19 22 -10 58 -25 80
-34 71 -29 228 -114 315 -171 335 -219 480 -462 436 -731 -3 -23 -17 -60 -49
-132 -6 -16 -15 -28 -19 -28 -5 0 -8 -6 -8 -13 0 -28 -206 -256 -232 -257 -4
0 -18 -11 -32 -25 -14 -14 -28 -25 -31 -25 -9 0 -76 -51 -105 -80 -47 -47 -81
-100 -104 -162 -21 -57 -24 -81 -25 -250 -2 -203 1 -219 58 -278 33 -35 71
-51 126 -52 77 -1 132 32 172 104 19 34 21 56 22 184 1 79 5 152 8 162 11 29
195 192 218 192 24 0 206 208 254 290 128 222 167 439 119 660 -79 367 -364
668 -873 922 -132 67 -309 144 -350 154 -16 4 -34 10 -40 14 -15 10 -198 64
-258 76 -10 2 -27 6 -37 9 -24 8 -55 14 -110 21 -25 3 -47 8 -50 9 -3 2 -26 6
-50 10 -25 3 -61 10 -80 15 -19 4 -62 11 -95 15 -33 3 -71 8 -85 10 -23 3
-117 11 -270 22 -76 5 -966 13 -972 8z"/>
<path d="M2618 5115 c-2 -2 -56 -6 -120 -9 -65 -4 -125 -9 -135 -10 -10 -2
-45 -7 -78 -10 -71 -8 -121 -15 -155 -21 -14 -3 -41 -7 -60 -10 -71 -11 -237
-47 -310 -66 -41 -12 -82 -22 -90 -24 -41 -9 -217 -68 -227 -77 -7 -6 -13 -8
-13 -5 0 4 -37 -10 -82 -29 -531 -226 -792 -515 -692 -764 40 -99 135 -207
270 -307 112 -83 136 -103 169 -143 51 -61 81 -110 107 -173 48 -119 47 -106
48 -1247 0 -591 3 -1091 6 -1110 3 -19 17 -68 30 -108 73 -219 268 -383 499
-419 17 -3 496 -6 1065 -7 1028 -2 1041 -2 1166 27 7 2 47 20 89 41 164 81
296 257 331 441 4 22 8 533 10 1135 1 602 4 1104 7 1116 48 196 121 303 299
437 131 98 186 151 238 227 63 93 85 183 66 270 -30 133 -228 340 -431 449
-22 12 -47 26 -55 32 -31 20 -214 101 -293 130 -132 49 -275 94 -337 105 -19
4 -41 11 -47 17 -7 5 -13 7 -13 4 0 -3 -28 1 -62 10 -63 15 -105 23 -143 28
-11 1 -31 5 -45 8 -14 4 -47 9 -75 13 -27 3 -59 7 -70 9 -11 1 -38 5 -60 8
-49 7 -143 17 -210 23 -56 5 -593 13 -597 9z"/>
<path d="M4747 2515 c-52 -27 -68 -42 -91 -85 l-25 -47 -1 -614 c-1 -338 -3
-632 -5 -654 -19 -211 -140 -425 -316 -561 -60 -46 -187 -114 -213 -114 -9 0
-16 -5 -16 -10 0 -6 -3 -9 -7 -8 -5 1 -30 -3 -58 -10 -27 -6 -70 -14 -95 -18
-58 -9 -2079 -9 -2145 -1 -59 8 -160 33 -195 48 -250 112 -399 270 -482 509
-10 30 -18 56 -18 58 0 1 0 3 -1 5 -18 58 -22 190 -23 766 l-1 606 -24 38
c-13 20 -44 49 -69 64 -115 68 -261 -1 -280 -133 -8 -59 -6 -1203 2 -1289 14
-132 82 -341 141 -434 14 -22 25 -44 25 -48 0 -13 108 -153 159 -207 38 -40
85 -80 206 -174 29 -23 169 -94 229 -117 76 -28 195 -60 266 -71 63 -10 2146
-13 2206 -4 124 21 125 21 264 66 124 39 195 74 306 150 134 90 184 133 246
212 29 37 55 69 59 72 4 3 29 45 58 94 74 130 105 217 150 425 6 26 10 319 11
696 1 712 2 694 -57 750 -55 52 -149 70 -206 40z"/>
</g>
</svg>
