<?xml version="1.0" standalone="no"?>
<!DOCTYPE svg PUBLIC "-//W3C//DTD SVG 20010904//EN"
 "http://www.w3.org/TR/2001/REC-SVG-20010904/DTD/svg10.dtd">
<svg version="1.0" xmlns="http://www.w3.org/2000/svg"
 width="700.000000pt" height="700.000000pt" viewBox="0 0 700.000000 700.000000"
 preserveAspectRatio="xMidYMid meet">
<metadata>
Created by potrace 1.14, written by Peter Selinger 2001-2017
</metadata>
<g transform="translate(0.000000,700.000000) scale(0.100000,-0.100000)"
fill="#000000" stroke="none">
<path d="M3268 6710 c-1120 -88 -2117 -748 -2620 -1735 -178 -350 -278 -668
-335 -1066 -24 -176 -24 -642 0 -818 72 -508 241 -959 508 -1361 333 -499 770
-881 1302 -1135 1065 -509 2346 -388 3290 313 729 540 1189 1336 1292 2237 21
185 21 525 0 710 -102 891 -554 1681 -1271 2223 -449 339 -999 555 -1579 622
-126 14 -459 20 -587 10z m-50 -505 c2 -2 -13 -45 -33 -96 -139 -345 -160
-729 -80 -1409 40 -343 32 -456 -40 -599 -56 -112 -138 -226 -323 -452 -31
-38 -52 -102 -52 -159 0 -122 85 -211 306 -324 62 -31 119 -65 129 -76 42 -47
55 -154 35 -290 -23 -156 41 -367 185 -605 41 -67 44 -77 73 -264 27 -165 35
-200 58 -233 51 -73 139 -137 232 -169 63 -22 187 -25 260 -8 111 28 523 228
812 394 74 43 153 89 176 102 53 30 191 51 210 31 7 -7 44 -100 82 -207 l69
-193 -76 -71 c-42 -39 -125 -107 -186 -152 -353 -262 -743 -424 -1180 -491
-170 -27 -570 -27 -740 0 -260 40 -512 117 -742 226 -137 65 -343 186 -343
201 0 5 27 27 61 47 33 20 137 89 232 152 149 100 175 121 195 160 32 61 24
111 -35 230 -47 93 -48 97 -54 215 -3 66 -9 128 -13 137 -6 13 1 29 24 55 38
42 69 107 70 142 0 34 -36 93 -73 118 -18 13 -59 31 -91 42 -107 35 -150 102
-191 300 -51 243 -101 340 -246 476 -119 111 -274 190 -437 221 -148 28 -364
14 -525 -36 l-68 -21 -26 21 c-16 12 -41 20 -64 20 -62 0 -87 14 -99 58 -8 30
-18 44 -44 56 l-33 16 -5 122 c-7 150 5 346 27 453 21 100 50 170 149 364 69
132 91 165 160 238 53 56 99 94 136 113 41 21 72 48 117 103 55 67 66 76 105
82 24 4 63 15 88 24 55 21 66 18 85 -20 20 -37 62 -39 94 -5 l22 24 -45 -5
c-36 -4 -47 -2 -52 11 -3 9 -13 16 -21 16 -12 0 -15 9 -11 45 3 25 1 46 -5 48
-5 1 -7 13 -3 25 9 27 221 239 248 248 25 8 61 -17 88 -61 l22 -35 73 74 c45
44 76 85 80 102 9 44 21 59 41 56 11 -2 69 -2 129 -2 101 1 114 4 160 29 28
16 66 31 85 34 19 3 76 24 125 47 72 32 95 48 109 74 10 18 42 58 72 87 l55
54 92 6 c103 8 286 59 300 85 6 11 17 14 35 9 15 -4 28 -8 30 -10z"/>
</g>
</svg>
