<?xml version="1.0" standalone="no"?>
<!DOCTYPE svg PUBLIC "-//W3C//DTD SVG 20010904//EN"
 "http://www.w3.org/TR/2001/REC-SVG-20010904/DTD/svg10.dtd">
<svg version="1.0" xmlns="http://www.w3.org/2000/svg"
 width="142.000000pt" height="142.000000pt" viewBox="0 0 142.000000 142.000000"
 preserveAspectRatio="xMidYMid meet">
<metadata>
Created by potrace 1.11, written by Peter Selinger 2001-2013
</metadata>
<g transform="translate(0.000000,142.000000) scale(0.100000,-0.100000)"
fill="#000000" stroke="none">
<path d="M113 1400 c-9 -10 -18 -28 -20 -39 -2 -17 39 -126 102 -266 8 -16
107 -248 221 -515 261 -613 239 -567 275 -575 52 -12 71 12 139 172 34 81 71
166 81 188 108 241 412 972 412 991 0 55 -79 87 -115 47 -9 -10 -95 -209 -193
-443 -97 -234 -185 -443 -194 -465 -10 -22 -38 -88 -62 -147 -24 -59 -46 -108
-49 -108 -3 0 -36 75 -74 168 -38 92 -78 187 -89 212 -11 25 -25 59 -32 75 -7
17 -75 179 -150 360 -76 182 -146 338 -157 348 -27 23 -74 22 -95 -3z"/>
</g>
</svg>
