<?xml version="1.0" standalone="no"?>
<!DOCTYPE svg PUBLIC "-//W3C//DTD SVG 20010904//EN"
 "http://www.w3.org/TR/2001/REC-SVG-20010904/DTD/svg10.dtd">
<svg version="1.0" xmlns="http://www.w3.org/2000/svg"
 width="700.000000pt" height="700.000000pt" viewBox="0 0 700.000000 700.000000"
 preserveAspectRatio="xMidYMid meet">
<metadata>
Created by potrace 1.14, written by Peter Selinger 2001-2017
</metadata>
<g transform="translate(0.000000,700.000000) scale(0.100000,-0.100000)"
fill="#000000" stroke="none">
<path d="M3278 6996 c-1 -2 -39 -6 -83 -10 -132 -10 -225 -24 -432 -65 -352
-70 -796 -249 -1118 -452 -794 -499 -1351 -1288 -1561 -2211 -11 -47 -15 -67
-25 -123 -5 -33 -12 -71 -15 -85 -3 -14 -7 -43 -10 -65 -3 -22 -7 -56 -9 -75
-28 -215 -28 -608 0 -835 6 -44 18 -127 20 -135 0 -3 5 -31 9 -63 4 -32 9 -57
11 -55 5 5 18 79 30 168 14 108 67 354 96 445 5 17 18 57 28 90 249 783 771
1462 1462 1900 233 148 491 271 753 359 122 42 329 99 400 112 17 3 49 9 71
14 22 5 58 11 80 14 157 22 195 27 254 33 90 9 528 10 623 1 68 -7 135 -16
263 -34 22 -3 42 -7 45 -9 3 -2 26 -6 50 -10 151 -21 479 -120 682 -205 489
-206 889 -489 1258 -890 232 -252 450 -589 600 -930 80 -182 197 -539 216
-660 3 -19 8 -37 10 -39 10 -11 13 527 3 611 -4 35 -10 88 -13 118 -10 85 -15
118 -42 275 -8 45 -50 209 -77 305 -118 408 -342 844 -604 1172 -207 260 -448
491 -686 661 -45 32 -89 63 -98 70 -8 7 -24 17 -35 24 -305 192 -554 312 -849
408 -119 39 -336 97 -410 109 -16 3 -70 12 -120 20 -49 8 -115 18 -145 21 -30
4 -68 9 -85 11 -34 5 -541 14 -547 10z"/>
<path d="M3238 5275 c-2 -1 -46 -6 -98 -9 -52 -4 -108 -9 -125 -11 -289 -43
-279 -41 -450 -85 -132 -34 -322 -93 -395 -123 -14 -6 -27 -11 -30 -12 -57
-19 -223 -96 -339 -156 -628 -328 -1141 -836 -1474 -1460 -47 -89 -76 -150
-152 -324 -19 -43 -95 -254 -95 -262 0 -4 12 10 27 32 14 22 29 42 32 45 3 3
26 32 50 65 92 124 272 321 416 454 62 58 263 221 325 264 313 218 605 366
939 477 110 36 315 92 381 103 14 3 63 12 110 20 200 37 370 51 600 51 140 0
354 -10 399 -19 10 -2 42 -6 72 -10 30 -3 61 -8 69 -10 8 -2 35 -6 60 -9 25
-3 60 -10 78 -15 18 -5 35 -10 37 -10 34 1 232 -51 380 -98 958 -307 1748
-1035 2146 -1979 45 -107 145 -402 154 -455 3 -18 8 -36 11 -40 6 -10 50 -227
64 -314 6 -38 13 -81 15 -95 4 -24 14 -139 21 -225 4 -58 4 -400 -1 -464 -3
-49 -6 -80 -21 -206 -4 -33 -40 -246 -48 -280 -1 -5 -6 -26 -10 -45 -4 -19
-10 -43 -12 -52 -4 -15 1 -18 30 -18 33 0 38 4 74 68 63 107 193 377 206 427
2 6 6 17 9 25 42 103 136 404 152 490 3 19 8 42 9 50 2 8 7 33 11 55 43 221
58 385 59 640 1 180 -7 365 -18 421 -2 12 -7 45 -11 75 -37 313 -160 721 -310
1034 -220 455 -560 892 -924 1185 -24 19 -58 47 -75 61 -53 44 -206 152 -301
211 -307 192 -646 337 -1003 428 -68 17 -133 33 -145 35 -12 2 -49 8 -82 14
-144 25 -166 28 -245 36 -36 4 -78 9 -95 12 -30 5 -472 12 -477 8z"/>
<path d="M2258 3725 c-2 -2 -44 -6 -94 -9 -51 -4 -100 -8 -110 -10 -11 -2 -48
-7 -84 -12 -36 -4 -67 -8 -70 -9 -3 -1 -27 -5 -55 -10 -27 -4 -59 -9 -70 -12
-11 -2 -31 -6 -45 -9 -164 -33 -445 -119 -615 -189 -144 -60 -370 -175 -505
-259 -119 -74 -296 -198 -350 -246 -14 -12 -53 -45 -88 -73 -34 -28 -62 -52
-62 -53 0 -2 37 13 83 32 295 127 675 232 942 259 33 3 69 8 80 10 45 9 239
18 380 17 412 -2 755 -60 1145 -194 661 -228 1249 -665 1678 -1247 330 -448
570 -1045 632 -1572 6 -52 13 -104 16 -117 l4 -22 434 0 433 0 3 93 c1 50 3
110 3 132 1 58 -13 326 -18 355 -2 14 -6 52 -10 84 -18 180 -71 421 -141 640
-279 867 -897 1602 -1699 2022 -414 217 -823 337 -1320 390 -51 5 -492 13
-497 9z"/>
</g>
</svg>
