<?xml version="1.0" standalone="no"?>
<!DOCTYPE svg PUBLIC "-//W3C//DTD SVG 20010904//EN"
 "http://www.w3.org/TR/2001/REC-SVG-20010904/DTD/svg10.dtd">
<svg version="1.0" xmlns="http://www.w3.org/2000/svg"
 width="574.000000pt" height="574.000000pt" viewBox="0 0 574.000000 574.000000"
 preserveAspectRatio="xMidYMid meet">
<metadata>
Created by potrace 1.14, written by Peter Selinger 2001-2017
</metadata>
<g transform="translate(0.000000,574.000000) scale(0.100000,-0.100000)"
fill="#000000" stroke="none">
<path d="M1805 5683 c-44 -7 -89 -15 -100 -17 -11 -2 -27 -6 -35 -9 -8 -2 -51
-15 -95 -27 -44 -13 -84 -25 -90 -29 -5 -3 -12 -6 -15 -7 -8 -1 -51 -20 -105
-45 -46 -21 -253 -145 -265 -158 -3 -4 -34 -31 -70 -61 -35 -30 -87 -79 -115
-109 -27 -29 -60 -64 -73 -77 -12 -13 -22 -27 -22 -32 0 -5 -7 -15 -16 -23 -8
-7 -32 -37 -52 -68 -173 -261 -263 -550 -265 -858 -1 -78 11 -241 18 -253 2
-3 6 -25 10 -50 4 -25 8 -47 10 -51 2 -3 7 -20 10 -38 24 -135 184 -467 266
-551 8 -8 28 -33 44 -54 64 -84 199 -209 315 -289 122 -84 367 -195 491 -223
10 -2 29 -6 42 -9 24 -6 144 -25 192 -30 40 -5 252 -6 290 -1 113 14 144 18
175 26 19 5 46 11 60 14 95 18 246 80 407 167 111 59 297 219 408 349 41 48
135 186 135 198 0 6 4 12 8 14 8 3 92 168 92 180 0 3 8 23 17 44 9 22 18 44
19 49 2 6 12 44 24 85 12 41 23 84 25 95 2 11 8 54 15 95 14 82 18 314 7 400
-14 110 -31 193 -60 280 -12 36 -21 68 -22 72 0 3 -3 10 -7 14 -5 4 -8 14 -8
21 0 24 -99 213 -152 293 -59 87 -123 166 -188 230 -60 60 -175 160 -184 160
-4 0 -14 6 -21 13 -32 27 -45 37 -51 37 -4 0 -15 6 -23 14 -36 31 -185 103
-326 156 -28 10 -124 37 -160 44 -16 4 -41 9 -55 12 -57 12 -93 15 -255 18
-112 2 -197 -2 -250 -11z"/>
<path d="M5077 5174 c-2 -2 -18 -5 -36 -6 -18 -1 -35 -6 -37 -10 -3 -5 -9 -6
-14 -3 -5 3 -49 -13 -97 -36 -67 -32 -102 -57 -152 -108 -36 -37 -71 -74 -78
-83 -22 -29 -61 -113 -74 -158 -19 -69 -19 -70 -22 -154 -12 -327 256 -593
587 -582 111 3 188 26 279 80 90 54 192 163 212 226 4 14 11 27 14 30 3 3 16
34 27 70 25 80 29 215 8 291 -8 30 -17 61 -19 69 -6 25 -37 82 -69 130 -54 80
-151 161 -226 190 -19 7 -39 17 -45 20 -28 20 -244 48 -258 34z"/>
<path d="M5157 3844 c-1 -2 -14 -5 -27 -7 -146 -28 -253 -103 -344 -244 -45
-70 -88 -156 -156 -313 -18 -41 -41 -94 -51 -117 -11 -23 -19 -44 -19 -48 0
-3 -22 -53 -50 -111 -27 -58 -50 -110 -50 -115 0 -5 -4 -9 -8 -9 -5 0 -16 -18
-26 -41 -10 -22 -38 -70 -62 -106 -24 -36 -44 -69 -44 -73 0 -5 -3 -10 -8 -12
-4 -1 -27 -28 -50 -58 -80 -101 -179 -198 -274 -268 -31 -23 -61 -42 -67 -42
-5 0 -11 -4 -13 -8 -8 -20 -220 -122 -287 -137 -9 -3 -41 -11 -71 -19 -30 -8
-71 -17 -90 -20 -19 -2 -57 -8 -85 -12 -46 -6 -98 -10 -182 -13 -43 -1 -95
-48 -98 -87 -3 -40 21 -83 52 -95 75 -28 387 -30 563 -3 55 8 172 33 208 43
18 5 34 10 37 11 3 0 10 2 17 4 7 3 47 14 88 26 293 86 670 291 935 509 82 68
252 233 315 307 62 71 151 197 188 264 92 165 116 241 116 360 1 75 -4 108
-22 154 -59 154 -193 257 -356 274 -42 5 -78 7 -79 6z"/>
<path d="M5565 2656 c-16 -8 -46 -33 -65 -57 -61 -75 -311 -319 -327 -319 -3
0 -13 -8 -22 -18 -9 -10 -54 -47 -101 -82 -47 -35 -88 -69 -92 -74 -4 -6 -8
-7 -8 -3 0 5 -17 -5 -37 -21 -75 -58 -453 -272 -453 -256 0 2 -15 -5 -34 -15
-59 -33 -327 -120 -449 -145 -153 -32 -239 -40 -422 -39 -182 0 -263 6 -395
29 -82 14 -144 27 -210 45 -41 11 -82 22 -90 24 -8 2 -16 4 -17 5 -2 2 -6 3
-10 4 -117 30 -469 188 -668 299 -206 116 -485 259 -621 318 -179 78 -280 101
-449 102 -201 2 -299 -17 -465 -91 -74 -33 -184 -98 -205 -122 -10 -11 -22
-20 -27 -20 -34 0 -278 -302 -278 -344 0 -9 -4 -16 -9 -16 -5 0 -11 -8 -14
-17 -3 -10 -18 -52 -33 -93 -45 -126 -62 -229 -59 -375 2 -71 6 -141 9 -155 3
-14 9 -38 12 -55 20 -112 94 -281 172 -390 67 -96 223 -253 312 -315 19 -14
37 -28 40 -31 16 -20 192 -124 291 -172 177 -85 438 -165 624 -191 22 -3 51
-8 65 -10 14 -3 60 -7 102 -10 42 -2 81 -6 85 -9 10 -6 421 0 488 7 28 3 70 8
95 11 25 3 65 8 90 11 25 2 59 7 75 10 17 3 41 7 55 9 24 3 54 8 110 20 14 3
39 8 55 11 61 10 283 66 385 96 58 16 110 31 115 33 6 1 17 5 25 8 20 7 93 30
105 33 13 3 194 71 220 84 11 5 43 19 70 31 227 99 564 297 740 436 17 13 35
27 40 31 81 61 223 183 329 282 244 230 452 472 660 768 88 126 236 356 236
369 0 3 6 14 14 22 7 9 33 52 56 96 24 44 47 85 52 92 15 19 6 85 -15 116 -36
52 -94 69 -152 43z"/>
</g>
</svg>
