<svg xmlns="http://www.w3.org/2000/svg" x="0" y="0" width="34" height="66">
  <style>
    .st1{fill:none;stroke:#1a223d;stroke-width:.75;stroke-miterlimit:10}
  </style>
  <path fill="#3C2E4D" d="M0 0h34v66H0z"/>
  <path class="st1" d="M17.3 8c0-3.9-3.1-7-7-7s-7 3.1-7 7 3.1 7 7 7c3.8 0 7-3.1 7-7M27.4 6.8c.5-1.3-.1-2.8-1.4-3.3-1.3-.5-2.7.1-3.2 1.4-.5 1.3.1 2.7 1.4 3.2 1.3.6 2.7 0 3.2-1.3M16 18.6c.8.1 3.3.4 6.7-1.7 2.5-1.5 4.2-3.7 4.3-5.1.2-1.1-.6-2.1-1.7-2.2-.5-.1-.8 0-1.3.2-1.3.7-1.6 3.1-2.9 5-1.8 2.7-4.1 2.8-5.2 2.8-.2 0-.4.2-.4.4.1.4.3.6.5.6"/>
  <path class="st1" d="M26.7 15.8c-1.2 1.5-4.8 4.7-9.2 4.7-4.4 0-6.5-2.2-9.8-3.5-2.6-1.1-5.5.1-6.6 2.7-.8 1.9-.3 4 1 5.4 2.2 2.4 6.8 4.2 14.1 1.8 7.4-2.4 10.9-9.5 11.4-10.4.1-.3 0-.6-.3-.8-.1-.2-.4-.1-.6.1M2.6 41c0-3.9-3.1-7-7-7s-7 3.1-7 7 3.1 7 7 7c3.8 0 7-3.1 7-7M12.7 39.8c.5-1.3-.1-2.7-1.4-3.2-1.3-.6-2.7.1-3.2 1.3-.5 1.3.1 2.7 1.4 3.2 1.3.6 2.7 0 3.2-1.3M1.3 51.6c.8.1 3.3.4 6.7-1.6 2.5-1.5 4.2-3.7 4.3-5.1.2-1.1-.6-2.1-1.7-2.2-.5-.1-.8 0-1.3.2-1.3.7-1.6 3.1-2.9 5-1.8 2.7-4.1 2.8-5.2 2.8-.2 0-.4.2-.4.4.1.3.3.5.5.5"/>
  <path class="st1" d="M12 48.8c-1.2 1.5-4.8 4.7-9.2 4.7-4.4 0-6.5-2.2-9.8-3.5-2.6-1.1-5.5.1-6.6 2.7-.8 1.9-.3 4 1 5.4 2.2 2.4 6.8 4.2 14.1 1.8 7.4-2.4 10.9-9.5 11.4-10.4.1-.3 0-.6-.3-.8-.1-.2-.4-.1-.6.1M36.6 41c0-3.9-3.1-7-7-7s-7 3.1-7 7 3.1 7 7 7 7-3.1 7-7M46.1 48.8c-1.2 1.5-4.8 4.7-9.2 4.7-4.4 0-6.5-2.2-9.8-3.5-2.6-1.1-5.5.1-6.6 2.7-.8 1.9-.3 4 1 5.4 2.2 2.4 6.8 4.2 14.1 1.8C43 57.5 46.5 50.4 47 49.5c.1-.3 0-.6-.3-.8-.1-.2-.4-.1-.6.1"/>
</svg>