<?xml version="1.0" standalone="no"?>
<!DOCTYPE svg PUBLIC "-//W3C//DTD SVG 20010904//EN"
 "http://www.w3.org/TR/2001/REC-SVG-20010904/DTD/svg10.dtd">
<svg version="1.0" xmlns="http://www.w3.org/2000/svg"
 width="300.000000pt" height="300.000000pt" viewBox="0 0 300.000000 300.000000"
 preserveAspectRatio="xMidYMid meet">
<metadata>
Created by potrace 1.11, written by Peter Selinger 2001-2013
</metadata>
<g transform="translate(0.000000,300.000000) scale(0.100000,-0.100000)"
fill="#000000" stroke="none">
<path d="M910 2960 c-216 -44 -398 -169 -520 -355 -146 -224 -168 -527 -56
-769 102 -222 281 -377 511 -445 340 -99 703 33 899 328 352 528 -12 1236
-644 1256 -72 2 -131 -3 -190 -15z"/>
<path d="M2654 2699 c-245 -32 -346 -339 -167 -511 185 -179 498 -56 508 201
7 190 -152 335 -341 310z"/>
<path d="M2675 2000 c-56 -14 -83 -28 -120 -67 -49 -50 -73 -94 -135 -238 -28
-66 -67 -151 -87 -190 -113 -222 -292 -367 -508 -411 -11 -2 -51 -7 -90 -10
-38 -4 -77 -10 -86 -15 -41 -21 -20 -84 31 -94 35 -7 201 -8 230 -1 14 3 43 8
65 11 163 23 414 132 570 247 282 209 444 466 390 621 -37 108 -152 172 -260
147z"/>
<path d="M2813 1283 c-335 -330 -726 -480 -1108 -426 -204 29 -351 87 -695
274 -302 165 -468 190 -667 103 -312 -136 -430 -522 -248 -809 37 -58 122
-148 180 -191 22 -16 42 -31 45 -34 6 -6 30 -20 103 -59 47 -25 167 -73 192
-77 6 -1 30 -7 55 -14 95 -26 236 -39 393 -35 87 2 161 6 165 8 4 3 32 8 62
11 83 10 264 52 376 88 54 17 104 33 111 34 34 6 254 113 336 163 330 201 633
524 845 899 60 106 57 172 -9 172 -21 0 -52 -24 -136 -107z"/>
</g>
</svg>
