<?xml version="1.0" standalone="no"?>
<!DOCTYPE svg PUBLIC "-//W3C//DTD SVG 20010904//EN"
 "http://www.w3.org/TR/2001/REC-SVG-20010904/DTD/svg10.dtd">
<svg version="1.0" xmlns="http://www.w3.org/2000/svg"
 width="574.000000pt" height="574.000000pt" viewBox="0 0 574.000000 574.000000"
 preserveAspectRatio="xMidYMid meet">
<metadata>
Created by potrace 1.14, written by Peter Selinger 2001-2017
</metadata>
<g transform="translate(0.000000,574.000000) scale(0.100000,-0.100000)"
fill="#000000" stroke="none">
<path d="M1810 5684 c-101 -17 -118 -20 -165 -33 -22 -6 -43 -11 -47 -11 -24
-2 -187 -68 -271 -111 -200 -100 -415 -279 -527 -439 -14 -19 -27 -37 -30 -40
-3 -3 -20 -27 -38 -55 -17 -27 -36 -55 -42 -62 -5 -7 -10 -19 -10 -28 0 -8 -4
-15 -8 -15 -5 0 -16 -17 -25 -37 -9 -21 -28 -65 -42 -98 -25 -55 -70 -193 -80
-240 -12 -64 -33 -183 -35 -200 -8 -123 0 -360 15 -430 3 -11 7 -32 10 -47 11
-63 17 -82 46 -171 29 -84 123 -295 138 -307 4 -3 22 -30 41 -60 19 -30 39
-60 45 -66 5 -6 23 -29 40 -50 40 -52 189 -201 245 -244 25 -19 47 -38 48 -42
2 -4 8 -8 14 -8 6 0 31 -15 57 -33 80 -58 307 -165 383 -181 13 -3 57 -14 98
-25 41 -11 100 -23 130 -27 30 -3 66 -8 80 -11 32 -5 264 -4 310 2 69 8 115
15 145 22 17 4 33 6 37 5 3 -1 32 7 62 18 31 10 56 17 56 15 0 -2 20 4 45 15
25 11 49 20 53 21 35 7 188 83 267 132 130 81 289 221 366 322 13 17 26 32 30
35 37 26 207 331 223 400 1 3 7 14 13 25 11 21 59 199 67 250 2 17 5 30 6 30
6 0 14 141 14 245 1 239 -35 412 -127 625 -32 74 -122 236 -152 274 -96 119
-132 159 -209 234 -50 48 -96 87 -103 87 -7 0 -13 4 -13 9 0 5 -15 18 -32 30
-18 11 -42 26 -53 33 -11 7 -22 16 -25 20 -3 4 -57 33 -120 65 -158 80 -317
132 -485 159 -72 11 -374 10 -445 -2z"/>
<path d="M5099 5176 c-2 -2 -24 -6 -49 -9 -75 -10 -210 -60 -210 -78 0 -5 -7
-9 -15 -9 -9 0 -48 -33 -88 -72 -111 -112 -168 -244 -170 -396 -3 -325 258
-587 578 -581 171 3 329 76 425 195 19 24 40 50 47 58 18 20 59 113 76 174 18
59 17 230 -1 296 -29 106 -105 218 -208 307 -48 41 -170 95 -239 105 -47 7
-142 13 -146 10z"/>
<path d="M5054 3816 c-113 -42 -194 -103 -250 -192 -10 -16 -21 -31 -25 -34
-17 -14 -116 -221 -184 -385 -36 -88 -47 -113 -106 -243 -16 -34 -30 -65 -31
-70 -1 -4 -16 -30 -35 -59 -18 -29 -33 -55 -33 -58 0 -6 -68 -111 -91 -140
-77 -94 -141 -167 -184 -206 -59 -55 -161 -139 -169 -139 -3 0 -25 -13 -49
-30 -57 -38 -255 -129 -285 -130 -4 0 -25 -5 -47 -11 -49 -13 -70 -18 -115
-24 -19 -3 -44 -7 -55 -10 -11 -2 -58 -6 -105 -10 -117 -8 -151 -14 -166 -30
-35 -35 -38 -102 -7 -137 9 -10 35 -23 57 -29 61 -17 363 -19 486 -3 120 16
284 50 311 65 11 5 19 8 19 5 0 -6 192 59 229 78 17 9 33 16 36 16 12 1 48 16
155 68 144 70 250 131 369 213 52 35 101 69 109 74 9 6 21 15 28 20 53 46 74
64 107 89 50 37 257 244 293 293 16 21 37 45 46 54 10 9 18 20 18 23 0 4 6 13
13 20 6 8 17 22 24 32 7 11 28 42 47 70 51 76 96 169 126 262 35 106 35 218 0
307 -6 17 -10 30 -9 30 2 0 -11 20 -28 45 -95 135 -195 191 -348 196 -73 2
-101 -2 -151 -20z"/>
<path d="M5565 2654 c-16 -8 -50 -40 -75 -70 -66 -81 -266 -272 -360 -344 -25
-19 -47 -37 -50 -40 -12 -14 -127 -98 -149 -110 -14 -7 -34 -21 -45 -31 -11
-11 -26 -19 -33 -19 -7 0 -13 -4 -13 -8 0 -5 -10 -14 -22 -20 -13 -6 -45 -25
-73 -42 -65 -39 -163 -90 -171 -89 -4 0 -10 -3 -13 -8 -24 -35 -430 -182 -583
-212 -5 0 -9 -1 -10 -2 -2 0 -18 -2 -37 -5 -19 -2 -46 -6 -60 -9 -106 -20
-455 -27 -563 -12 -27 4 -69 10 -95 13 -27 3 -79 13 -118 21 -38 8 -81 17 -94
19 -57 11 -177 47 -185 55 -6 5 -17 9 -27 9 -16 0 -60 16 -199 73 -94 39 -434
209 -438 219 -2 4 -8 8 -12 8 -5 0 -76 36 -157 80 -259 141 -523 265 -608 285
-11 3 -49 12 -85 21 -70 18 -300 25 -379 11 -181 -29 -388 -119 -507 -219 -30
-26 -140 -135 -164 -164 -89 -105 -194 -320 -214 -439 -3 -16 -10 -52 -15 -80
-11 -53 -9 -314 2 -332 4 -6 8 -25 11 -44 11 -85 132 -369 157 -369 5 0 9 -5
9 -11 0 -17 75 -105 167 -196 45 -46 85 -83 87 -83 3 0 18 -12 33 -26 49 -45
277 -196 303 -199 3 -1 23 -11 46 -22 142 -75 438 -170 584 -189 19 -2 46 -7
60 -10 124 -27 530 -38 735 -20 127 12 145 14 190 21 22 3 67 10 100 16 33 5
105 18 160 29 55 11 109 22 120 24 40 7 262 66 345 91 47 15 92 28 101 30 8 2
32 10 52 19 20 8 37 13 37 10 0 -2 14 2 30 11 17 9 30 13 30 9 0 -4 6 -2 13 3
6 5 41 20 77 33 36 13 76 30 90 37 14 7 28 13 33 13 9 0 263 126 322 159 79
45 161 95 230 139 68 44 295 209 305 221 3 4 25 22 50 41 24 19 52 42 60 50 9
8 51 46 95 85 393 350 779 848 1055 1358 37 69 41 84 36 120 -8 46 -30 79 -61
91 -39 15 -80 15 -110 0z"/>
</g>
</svg>
