<?xml version="1.0" standalone="no"?>
<!DOCTYPE svg PUBLIC "-//W3C//DTD SVG 20010904//EN"
 "http://www.w3.org/TR/2001/REC-SVG-20010904/DTD/svg10.dtd">
<svg version="1.0" xmlns="http://www.w3.org/2000/svg"
 width="568.000000pt" height="568.000000pt" viewBox="0 0 568.000000 568.000000"
 preserveAspectRatio="xMidYMid meet">
<metadata>
Created by potrace 1.11, written by Peter Selinger 2001-2013
</metadata>
<g transform="translate(0.000000,568.000000) scale(0.100000,-0.100000)"
fill="#000000" stroke="none">
<path d="M2587 5674 c-2 -2 -32 -6 -68 -9 -35 -2 -80 -6 -99 -9 -19 -3 -57 -8
-83 -11 -26 -3 -71 -10 -100 -16 -29 -6 -65 -13 -82 -15 -63 -11 -264 -68
-365 -104 -111 -40 -311 -126 -320 -138 -3 -4 -36 -23 -75 -42 -38 -19 -72
-38 -75 -41 -3 -3 -20 -14 -39 -24 -56 -29 -233 -152 -296 -207 -299 -259
-497 -509 -651 -820 -25 -51 -50 -101 -55 -110 -33 -62 -134 -348 -154 -434
-2 -10 -11 -47 -19 -81 -9 -34 -18 -75 -21 -90 -2 -15 -7 -39 -10 -53 -36
-178 -50 -352 -50 -620 0 -258 14 -454 40 -564 3 -12 7 -34 9 -51 2 -16 11
-60 19 -96 9 -37 18 -78 21 -90 12 -61 58 -212 83 -279 4 -8 7 -18 8 -22 2 -5
4 -10 5 -13 1 -3 3 -8 4 -12 1 -5 11 -29 23 -55 12 -25 24 -57 29 -70 10 -31
144 -292 154 -298 4 -3 10 -15 14 -27 4 -13 12 -23 17 -23 5 0 9 -6 9 -13 0
-7 9 -23 20 -35 11 -12 20 -24 20 -27 0 -3 17 -29 37 -57 127 -178 301 -365
455 -492 92 -74 234 -176 246 -176 6 0 12 -4 14 -8 6 -16 203 -126 329 -183
129 -60 393 -153 463 -163 21 -4 42 -8 46 -11 3 -2 20 -7 36 -9 16 -3 40 -8
54 -11 78 -16 151 -27 194 -31 26 -2 51 -6 55 -9 28 -17 548 -26 696 -11 116
11 194 20 260 32 102 17 122 21 155 29 14 3 36 8 50 11 14 3 79 21 145 40 551
163 1021 485 1361 934 61 81 122 172 140 210 4 8 10 17 13 20 22 19 165 308
208 420 64 164 124 371 147 505 3 17 8 46 11 65 10 55 15 91 20 140 2 25 8 77
14 115 9 68 7 590 -2 650 -5 28 -13 81 -22 150 -9 68 -22 138 -29 163 -3 9 -8
29 -11 45 -13 70 -17 86 -32 137 -9 30 -18 60 -19 65 -6 32 -48 151 -55 160
-5 5 -9 16 -9 25 0 16 -68 178 -122 290 -44 91 -157 273 -220 355 -5 6 -22 28
-39 50 -17 22 -42 55 -57 74 -52 67 -308 318 -387 380 -44 34 -87 68 -96 75
-8 7 -30 21 -47 32 -18 10 -32 21 -32 25 0 4 -11 10 -25 13 -14 4 -25 11 -25
16 0 6 -5 10 -12 10 -6 0 -19 7 -29 16 -34 31 -258 147 -381 198 -75 31 -227
85 -253 90 -5 1 -26 7 -45 14 -19 6 -46 13 -60 16 -14 2 -52 11 -85 19 -54 14
-93 21 -165 33 -14 2 -34 6 -45 8 -11 3 -51 8 -90 12 -38 3 -81 8 -95 11 -33
6 -567 12 -573 7z m428 -668 c107 -7 170 -14 231 -27 28 -5 64 -12 80 -15 40
-7 146 -33 164 -41 8 -3 17 -7 20 -8 90 -24 296 -114 395 -172 68 -41 140 -86
145 -92 3 -3 25 -19 48 -34 116 -75 290 -247 399 -392 29 -39 57 -75 63 -82 5
-7 10 -17 10 -23 0 -5 5 -10 10 -10 6 0 10 -6 10 -14 0 -8 3 -16 8 -18 4 -1
16 -19 26 -38 11 -19 38 -70 62 -113 60 -109 139 -298 158 -377 2 -8 11 -40
20 -71 18 -61 23 -85 32 -139 3 -19 7 -42 10 -51 5 -18 13 -69 20 -134 41
-374 9 -720 -97 -1045 -18 -52 -35 -99 -40 -104 -5 -6 -9 -16 -9 -24 0 -24
-106 -236 -167 -335 -145 -234 -306 -409 -549 -596 -6 -5 -55 -35 -110 -68
-118 -72 -257 -139 -374 -180 -129 -46 -179 -61 -268 -78 -13 -2 -31 -6 -40
-9 -9 -3 -35 -8 -57 -11 -23 -3 -52 -7 -65 -10 -128 -25 -500 -24 -635 1 -22
4 -48 7 -57 8 -32 1 -8 14 39 20 27 4 86 16 133 28 47 11 92 21 100 23 8 1 22
5 30 8 8 3 35 11 60 17 45 11 71 20 205 67 274 97 560 274 798 493 62 57 180
177 217 220 12 14 34 39 49 55 47 53 186 237 237 315 27 41 52 77 56 78 5 2 8
8 8 13 0 5 21 44 48 87 73 119 77 129 66 159 -11 34 -69 74 -92 66 -9 -4 -66
-57 -127 -118 -108 -109 -131 -129 -210 -191 -61 -47 -175 -124 -185 -124 -4
0 -10 -4 -12 -8 -3 -9 -199 -108 -253 -128 -98 -37 -166 -57 -230 -68 -16 -3
-41 -8 -55 -11 -127 -25 -301 -23 -470 5 -90 15 -113 20 -150 32 -19 7 -39 13
-45 14 -77 17 -290 117 -510 239 -158 87 -334 171 -410 195 -101 32 -234 34
-365 6 -88 -18 -214 -90 -296 -168 -53 -50 -131 -156 -126 -170 1 -5 -4 -8
-11 -8 -16 0 -127 277 -142 356 -2 10 -4 19 -5 19 -2 0 -6 14 -35 150 -31 145
-43 297 -40 510 3 196 6 233 22 325 3 19 7 49 9 65 2 17 6 40 9 53 3 12 7 32
10 45 4 18 13 58 21 90 1 4 3 9 4 12 1 3 3 8 4 13 1 4 6 23 10 42 5 19 12 41
16 50 13 24 71 183 77 208 3 12 9 22 14 22 5 0 9 5 9 10 0 38 202 377 231 388
5 2 9 8 9 14 0 5 6 15 13 22 6 8 32 37 57 67 181 213 413 387 709 529 34 16
67 30 71 30 5 0 19 4 32 9 13 5 25 8 28 8 3 0 16 6 30 13 13 7 38 17 55 21 16
4 55 14 85 22 123 34 266 55 425 63 61 4 111 7 112 8 2 2 132 -3 218 -8z"/>
<path d="M2058 4255 c-2 -1 -22 -5 -46 -9 -75 -10 -150 -32 -222 -64 -19 -9
-40 -17 -45 -18 -17 -3 -116 -65 -175 -110 -238 -180 -380 -477 -375 -779 3
-147 17 -223 67 -349 50 -128 129 -249 222 -340 45 -44 164 -134 186 -141 11
-4 20 -11 20 -16 0 -5 9 -9 19 -9 11 0 22 -4 25 -8 9 -15 167 -70 251 -89 50
-11 314 -13 320 -2 4 5 10 7 14 4 13 -7 151 31 223 62 59 26 177 89 188 102 3
3 30 26 60 51 232 189 362 470 353 762 -1 56 -3 110 -4 118 -2 24 -30 143 -39
165 -4 11 -16 43 -26 70 -36 102 -151 270 -234 341 -14 12 -36 32 -50 44 -107
96 -297 181 -460 206 -40 7 -267 14 -272 9z"/>
<path d="M4067 3929 c-175 -27 -310 -195 -301 -374 4 -94 20 -136 74 -207 135
-176 410 -186 558 -19 118 131 124 336 15 469 -82 100 -217 151 -346 131z"/>
<path d="M4102 3095 c-99 -30 -170 -102 -239 -242 -26 -54 -48 -100 -48 -103
-1 -3 -9 -22 -18 -44 -9 -21 -17 -40 -17 -42 0 -7 -111 -228 -137 -271 -13
-24 -29 -43 -34 -43 -5 0 -9 -6 -9 -13 0 -18 -125 -146 -190 -195 -115 -86
-259 -139 -425 -157 -27 -4 -63 -7 -78 -9 -35 -4 -54 -22 -61 -57 -6 -34 4
-47 43 -59 39 -11 277 -11 329 0 20 5 51 11 67 14 69 12 95 19 190 51 86 28
178 69 300 132 112 59 268 176 378 287 85 85 99 101 159 188 118 168 145 299
86 414 -17 32 -38 65 -48 74 -10 8 -27 22 -37 30 -51 42 -149 63 -211 45z"/>
</g>
</svg>
